<?xml version="1.0" encoding="UTF-8" standalone="no"?>
<svg
   xmlns:dc="http://purl.org/dc/elements/1.1/"
   xmlns:cc="http://creativecommons.org/ns#"
   xmlns:rdf="http://www.w3.org/1999/02/22-rdf-syntax-ns#"
   xmlns:svg="http://www.w3.org/2000/svg"
   xmlns="http://www.w3.org/2000/svg"
   xmlns:sodipodi="http://sodipodi.sourceforge.net/DTD/sodipodi-0.dtd"
   xmlns:inkscape="http://www.inkscape.org/namespaces/inkscape"
   width="2712pt"
   height="2976pt"
   viewBox="0 0 2712 2976"
   version="1.1"
   id="svg44587"
   inkscape:version="0.91 r13725"
   sodipodi:docname="AmazonSilhouette.svg">
  <metadata
     id="metadata44595">
    <rdf:RDF>
      <cc:Work
         rdf:about="">
        <dc:format>image/svg+xml</dc:format>
        <dc:type
           rdf:resource="http://purl.org/dc/dcmitype/StillImage" />
        <dc:title></dc:title>
      </cc:Work>
    </rdf:RDF>
  </metadata>
  <defs
     id="defs44593" />
  <sodipodi:namedview
     pagecolor="#ffffff"
     bordercolor="#666666"
     borderopacity="1"
     objecttolerance="10"
     gridtolerance="10"
     guidetolerance="10"
     inkscape:pageopacity="0"
     inkscape:pageshadow="2"
     inkscape:window-width="1600"
     inkscape:window-height="837"
     id="namedview44591"
     showgrid="false"
     inkscape:zoom="0.18010753"
     inkscape:cx="1695.0565"
     inkscape:cy="1860"
     inkscape:window-x="-8"
     inkscape:window-y="-8"
     inkscape:window-maximized="1"
     inkscape:current-layer="svg44587" />
  <path
     style="opacity:1;fill:#eeeeee"
     d="M 1150.0996 0 C 1100.3371 4.2 1052.475 30.3 1025 72.5 C 993.45 112.1125 990.16172 164.49961 974.82422 210.97461 C 968.27422 224.09961 954.69961 237.71328 960.59961 253.61328 C 947.33711 289.57578 931.36172 324.65078 922.07422 362.05078 C 904.83672 396.95078 895.62578 435.07578 892.67578 473.80078 C 865.71328 543.06328 825.91172 606.31172 795.01172 673.76172 C 780.68672 699.78672 772.94922 728.97461 772.51172 758.53711 C 768.11172 792.94961 728.66328 800.14961 715.30078 829.03711 C 701.53828 850.01211 675.28828 859.13672 661.98828 880.76172 C 650.63828 902.83672 632.18711 920.06211 614.97461 937.16211 C 602.97461 926.37461 592.8 909.725 575.3125 906.9375 C 568.6625 904.725 558.5875 907.4125 557.75 915.4375 C 556.525 940.325 580.38828 955.725 589.73828 976.125 C 588.50078 979.8 586.16211 983.06289 583.53711 985.90039 C 569.08711 976.83789 551.8875 972.27461 534.8125 973.78711 C 520.3875 975.49961 514.5875 996.725 526.0625 1005.375 C 534.2 1008.8875 542.50039 1012.5758 549.15039 1018.6133 C 520.43789 1039.1008 474.76328 1024 452.67578 1055.375 C 434.78828 1062.6 413.46328 1058.2996 396.67578 1069.1621 C 380.93828 1086.4621 386.4625 1124.4242 357.5 1128.7617 C 342.2875 1136.0117 312.26328 1132.35 310.17578 1153.5 C 319.22578 1186.025 344.79961 1210.7504 356.28711 1242.4004 C 373.79961 1269.8379 408.775 1284.3371 419.5625 1316.7246 C 424.25 1328.0371 423.725 1347.6504 439.5625 1349.2754 C 470.425 1350.3129 502.7875 1353.4367 532.9375 1345.3867 C 582 1327.7367 602.025 1273.3508 637.875 1240.2383 C 662.1625 1242.8258 686.32578 1236.2871 709.92578 1231.2246 C 727.03828 1227.4371 740.25039 1213.4117 744.02539 1196.5117 C 750.90039 1170.8117 779.91328 1153.2367 776.98828 1124.5117 C 790.26328 1111.2117 802.10078 1096.8629 807.80078 1078.5879 C 817.92578 1094.9254 806.82539 1110.925 801.27539 1126.25 C 785.96289 1158.5125 780.63711 1194.1633 768.91211 1227.6758 C 758.67461 1261.2008 748.19922 1298.2504 761.26172 1332.5254 C 766.02422 1343.9129 765.38789 1358.6133 771.08789 1368.6758 C 784.45039 1339.3383 822.375 1320.5633 812.0625 1283.2383 C 804.3375 1253.2133 812.99922 1221.9254 804.44922 1191.9629 C 807.86172 1173.8379 814.5 1155.2371 822.5 1138.2871 C 844.2125 1217.0996 855.78711 1298.075 863.53711 1379.3125 C 869.22461 1377.75 864.80078 1384.5871 865.05078 1387.6621 C 869.70078 1386.4246 865.23711 1379.3746 868.66211 1377.6621 C 870.82461 1394.1746 874.56289 1410.6379 880.33789 1426.2754 C 883.15039 1424.7629 877.425 1410.3129 881.75 1417.4629 C 884.6875 1430.4754 889.25 1434.2758 896.125 1441.3633 C 891.25 1429.4508 885.66211 1417.9746 889.34961 1405.0371 C 890.56211 1406.5371 890.76289 1409.3008 892.83789 1409.8633 C 891.08789 1399.3383 887.15039 1388.7125 890.08789 1378 C 893.18789 1376.775 890.74961 1387.5496 893.09961 1388.0371 C 894.24961 1377.6121 891.9375 1366.9629 892.3125 1356.4629 C 897.1 1369.4254 895.52422 1386.7629 901.26172 1400.4629 C 899.18672 1379.8129 895.39922 1359.2875 895.13672 1338.5 C 898.93672 1366.2 901.99922 1394.0617 908.57422 1421.3242 C 914.83672 1410.9492 911.10078 1430.7754 916.48828 1433.6504 C 915.37578 1423.9754 910.58828 1414.8 912.42578 1404.875 C 911.61328 1395.025 908.16172 1384.0379 910.88672 1375.1504 C 911.83672 1385.0004 914.35078 1394.975 912.42578 1404.875 C 918.76328 1426.4875 922.73789 1451.7129 940.21289 1467.5879 C 938.38789 1453.6754 933.00039 1439.6871 930.90039 1425.2246 C 935.43789 1429.0371 933.96289 1438.1246 940.21289 1439.8496 C 927.78789 1402.9246 929.8875 1360.4883 938.5 1325.0508 C 942.2 1337.2383 935.12461 1354.025 936.34961 1367.6875 C 938.92461 1354.75 939.55039 1341.4621 942.65039 1328.5996 C 951.20039 1350.5746 947.47461 1377.3254 947.59961 1398.4629 C 952.51211 1376.0129 953.83789 1348.4117 953.83789 1324.0117 C 958.00039 1327.3992 951.775 1343.4367 956.3125 1347.3242 C 956.5375 1334.2492 956.66211 1321.1121 954.84961 1308.1621 C 955.64961 1311.8371 961.30078 1316.6004 957.61328 1306.4629 C 953.52578 1254.0254 945.08672 1203.2758 929.76172 1153.7383 C 962.68672 1223.0883 969.625 1301.6617 964.1875 1377.6992 C 965.65 1395.5117 968.74922 1413.1633 968.69922 1431.1133 C 969.01172 1419.7383 972.24961 1425.0125 974.84961 1430.25 C 974.72461 1426.225 973.00039 1417.6117 975.65039 1416.7617 C 980.00039 1436.5867 988.28672 1443.2383 988.63672 1463.5508 C 662.81172 1553.0633 336.30039 1640.6258 10.400391 1729.9258 C -2.7996094 1733.4883 1.5625 1750.2242 2.125 1760.1992 C 6.75 1774.7492 9.5367187 1800.6383 28.574219 1803.3008 C 357.22422 1715.2258 685.36211 1624.5117 1014.0996 1536.8867 C 1021.8371 1563.0867 982.37422 1573.7371 987.07422 1600.5371 C 979.62422 1633.9621 955.41211 1660.4371 937.47461 1688.7246 C 916.18711 1716.6246 899.58789 1748.3379 874.08789 1772.8379 C 849.96289 1793.3254 823.61172 1811.2629 800.88672 1833.4004 C 767.41172 1865.1004 741.23672 1903.1875 713.57422 1939.8125 C 640.41172 2026.0875 543.88789 2087.1258 451.46289 2150.3008 C 434.83789 2188.2883 445.23789 2231.3125 449.46289 2271.1875 C 431.16289 2304.7375 398.92539 2330.4758 385.33789 2366.6133 C 398.61289 2422.1008 470.23789 2459.9371 521.71289 2431.5996 C 570.28789 2396.6996 600.60039 2343.9629 631.71289 2294.2129 C 657.83789 2248.3004 683.93672 2202.3379 707.57422 2155.0879 C 737.49922 2098.7629 760.175 2038.7258 789.875 1982.4258 C 763.5 2052.5633 733.18789 2121.4125 699.83789 2188.5625 C 650.21289 2287.225 587.83711 2383.0121 571.22461 2494.2246 C 566.23711 2525.8871 581.16172 2559.1508 610.13672 2573.6758 C 658.68672 2597.1758 710.50039 2613.3375 762.27539 2628 C 756.61289 2669.9125 736.88672 2708.5742 708.69922 2739.9492 C 628.38672 2827.5742 594.25039 2944.4996 562.46289 3056.0996 C 548.88789 3071.6996 549.52461 3093.0758 542.72461 3111.2383 C 525.11211 3127.9258 512.5125 3151.1004 520.9375 3175.9004 C 508.9625 3187.1504 501.58711 3203.0121 511.03711 3218.8496 C 503.22461 3232.7871 492.4125 3246.4508 489.4375 3263.0508 C 470.4 3288.5133 456.22422 3319.9121 462.51172 3352.3496 C 468.71172 3373.4121 434.35 3385.6504 446.625 3407.7754 C 425.7375 3471.9629 366.21289 3511.2496 328.58789 3564.8496 C 316.51289 3584.5121 294.96172 3597.0996 287.19922 3619.5996 C 270.21172 3628.0996 250.96328 3646.7379 259.05078 3667.2754 C 275.96328 3677.2629 291.42578 3692.4508 310.80078 3696.3008 C 317.91328 3710.5508 341.73711 3711.5996 350.22461 3697.5996 C 353.81211 3712.0871 368.1875 3718.85 381.875 3720 L 394.36328 3720 C 419.33828 3712.9125 444.72461 3699.8875 457.34961 3676.0625 C 464.69961 3660.025 480.38828 3650.7875 491.86328 3638.125 C 523.93828 3603.2125 538.41328 3557.025 564.17578 3517.9375 C 571.18828 3508.3625 575.425 3497.2129 581.0625 3486.9629 C 596.95 3488.7254 599.6625 3471.9121 611.9375 3467.0371 C 620.2 3459.6371 616.99961 3446.8633 618.91211 3438.0508 C 635.76211 3434.2008 642.21289 3413.9125 634.83789 3399.0625 C 631.36289 3386.2 649.38711 3387.6992 655.22461 3380.1367 C 675.51211 3371.2492 685.37461 3347.5371 674.09961 3327.5371 C 699.49961 3316.3246 691.72422 3286.2383 706.07422 3267.2383 C 710.24922 3255.3008 721.71211 3247.875 725.84961 3235.9375 C 729.02461 3227.5 744.11172 3228.7504 742.94922 3217.5879 C 739.14922 3208.5629 750.63711 3204.3246 752.78711 3196.5371 C 760.29961 3185.3246 750.81328 3170.3375 759.92578 3159.8125 C 764.93828 3153.9 758.6375 3146.6746 758.125 3140.4121 C 781.575 3106.6996 801.87539 3070.9867 823.83789 3036.3242 C 860.37539 2975.9742 874.12422 2904.4004 912.94922 2845.4629 C 985.12422 2781.0129 1014.6254 2685.2996 1041.4629 2595.5996 C 1081.4004 2577.5871 1118.6504 2548.0996 1135.1504 2506.4121 C 1175.2629 2420.2871 1178.0746 2323.1879 1186.2246 2230.2129 C 1208.6746 2192.6379 1225.15 2151.7504 1246.25 2113.5879 C 1258.9875 2204.0629 1248.1629 2296.0742 1258.1504 2386.8242 C 1259.4129 2403.5867 1269.6742 2417.8617 1276.8242 2432.5742 C 1287.9742 2431.4617 1299.1371 2430.0008 1310.1621 2427.9258 C 1352.7246 2402.8883 1382.6254 2362.5258 1419.0254 2329.9883 C 1450.4629 2316.6008 1481.4625 2356.4371 1512.625 2338.7871 C 1546.4875 2329.4496 1556.875 2287.8875 1572.9375 2264.75 C 1670.65 2339.25 1765.9875 2419.1883 1876.375 2474.8633 C 1909.2875 2495.1883 1945.7867 2509.1242 1977.8867 2530.7617 C 1995.2242 2540.2242 1993.5254 2563.1504 1985.7754 2578.3379 C 1970.7004 2604.5129 1949.9242 2627.1496 1937.3867 2654.8496 C 1907.1867 2719.7246 1903.7129 2794.0746 1909.4629 2864.3496 C 1911.2879 2899.4246 1929.4754 2931.5 1930.3379 2966.5625 C 1926.0379 2977.675 1926.275 2989.3867 1929.625 3000.8242 C 1920.875 3004.4367 1920.4625 3015.5125 1928.5 3020.375 C 1939.225 3027.425 1921.9625 3027.9758 1921 3035.0508 C 1917.2375 3042.6008 1925.7992 3046.9367 1929.8242 3051.6367 C 1926.7742 3062.8992 1925.9871 3074.4246 1928.2871 3085.9746 C 1915.9996 3083.5371 1917.1242 3097.5617 1926.0117 3100.1367 C 1925.6117 3115.7867 1945.4008 3130.2 1931.3633 3145.6875 C 1921.9133 3151.3125 1927.2867 3162.2875 1935.6992 3164.8125 C 1937.0242 3176.375 1929.4992 3188.7633 1938.4492 3198.8008 C 1925.7117 3199.6258 1919.4375 3217.7504 1935.5 3217.2129 C 1927.7875 3227.9754 1931.1367 3241.6625 1939.6367 3251.1875 C 1928.1117 3267.325 1928.5996 3289.8742 1940.6621 3305.5742 C 1940.5871 3312.8492 1932.4492 3319.55 1935.7617 3327.75 C 1935.5367 3334.65 1946.275 3336.4504 1944.5625 3343.4004 C 1939.4625 3378.4629 1925.9867 3413.3625 1932.0117 3449.25 C 1936.6117 3476.0625 1940.4879 3504.15 1954.4629 3528 C 1978.2629 3557.95 2023.4242 3541.9871 2055.8242 3545.9121 C 2105.6242 3543.6996 2152.6371 3516.7375 2203.2871 3526.6875 C 2227.3496 3527.8 2253.9742 3548.5754 2275.7617 3535.5879 C 2311.3242 3547.8629 2359.5746 3558.3754 2390.2246 3531.5879 C 2418.7746 3536.7254 2450.6746 3543.9004 2477.4746 3528.8379 C 2490.3246 3521.9629 2493.325 3503.2133 2483.1875 3492.9258 C 2469.1 3487.7883 2452.3242 3492.5629 2441.3242 3479.7129 C 2407.5242 3453.5879 2359.9008 3471.1492 2326.2383 3446.2617 C 2297.8258 3429.7992 2260 3424.7258 2240.5625 3398.8008 C 2239.725 3385.8508 2225.4871 3387.5617 2217.0371 3386.7617 C 2214.2371 3370.5367 2194.2254 3378.7754 2189.2754 3364.8379 C 2187.6379 3352.5379 2168.0496 3360.7617 2171.1621 3346.1367 C 2160.6371 3338.5242 2149.0258 3329.2621 2141.6133 3319.9121 C 2148.3258 3304.8996 2126.7375 3295.1242 2138.4375 3282.2617 C 2152.7625 3264.8492 2154.6508 3237.9254 2136.5508 3222.4004 C 2141.5633 3215.6004 2143.0375 3208.2133 2140.3125 3200.3633 C 2145.5625 3192.0508 2146.5367 3183.0625 2141.9492 3174 C 2152.1242 3173.5625 2151.8625 3159.2008 2141.4375 3159.7383 C 2123.45 3160.8383 2136.95 3136.5504 2134.5 3126.3379 C 2141.95 3124.6754 2153.1758 3115.6504 2143.9258 3108.8379 C 2133.1383 3106.4254 2134.8633 3093.1746 2137.3633 3085.5371 C 2154.5633 3080.5746 2157.9117 3058.0371 2147.5117 3045.1621 C 2160.1242 3037.9621 2154.9242 3020.8617 2141.1992 3018.6367 C 2137.5117 3005.5992 2148.9758 2988.1742 2139.0508 2975.5742 C 2142.4758 2915.1492 2154.6242 2855.55 2163.1992 2795.6875 C 2168.2992 2746.325 2181.8133 2698.3492 2192.5508 2650.0117 C 2199.4633 2605.9367 2225.6496 2567.8371 2230.8496 2523.2871 C 2238.3496 2455.8746 2200.3504 2393.8871 2155.0254 2347.4746 C 2093.7254 2279.7871 2038.2129 2207.0746 1976.5254 2139.7246 C 1911.2879 2066.3496 1835.9004 2002.8758 1767.2129 1933.1133 C 1769.4629 1905.5633 1735.5746 1896.7371 1728.1621 1873.0996 C 1721.1496 1853.0121 1712.5379 1833.5367 1705.2129 1813.5742 C 1722.6879 1823.7867 1738.4379 1836.8246 1753.9629 1849.7871 C 1788.0504 1879.9496 1799.0246 1931.0496 1839.5996 1954.2871 C 1863.4246 1961.3746 1890.1375 1946.05 1902.125 1925.5625 C 1901.6875 1905.325 1876.0508 1894.0371 1879.3633 1872.5996 C 1878.1508 1857.1121 1858.8121 1856.6754 1849.0371 1848.5879 C 1800.7996 1800.9879 1740.3746 1768.8117 1686.1621 1728.8242 C 1645.3246 1708.2867 1607.125 1682.9004 1570 1656.2754 C 1550.8625 1643.0004 1538.8633 1621.0629 1535.7383 1598.2129 C 1526.7258 1581.8754 1517.8129 1563.3371 1521.8379 1544.0996 C 1524.5254 1531.6121 1520.1008 1519.5 1513.4883 1509.1875 C 1516.7508 1473.95 1507.7008 1438.5617 1507.4883 1403.1367 C 1549.6883 1390.3367 1592.7258 1379.85 1635.1758 1367.6875 C 1657.1758 1360.625 1680.1871 1372.5008 1702.2246 1366.5508 C 1709.1496 1363.5383 1708.1754 1354.5129 1709.2129 1348.4629 C 1732.3379 1340.9004 1756.1883 1335.0754 1779.7383 1329.1504 C 1799.8883 1346.9129 1818.2 1370.2879 1843.6875 1381.4629 C 1859.0125 1385.7254 1863.7875 1365.9758 1874 1358.9883 C 1890.975 1345.8383 1901.1504 1327.0246 1908.4629 1307.3496 C 1920.3504 1300.4746 1939.1758 1306.4617 1945.4883 1289.8242 C 1968.3758 1276.0242 1990.3621 1305.1121 2012.5996 1290.2246 C 2022.8996 1285.0871 2018.4117 1272.6367 2014.0117 1264.7617 C 2081.2992 1247.2242 2148.3125 1228.6254 2215.4375 1210.5254 C 2220.875 1208.1129 2220.2879 1217.1125 2224.8379 1217.4375 C 2228.3879 1214.6125 2229.2754 1208.8125 2234.5254 1208.1875 C 2335.3504 1175.9875 2435.8617 1142.3242 2537.0117 1111.4492 C 2541.4617 1119.7867 2554.5375 1118.225 2551.875 1107.375 C 2604.75 1133.8875 2656.8258 1162.0992 2708.3008 1191.1367 C 2729.4008 1188.9492 2748.3242 1177.8742 2768.0117 1170.5117 C 2983.0117 1081.6867 3198.6625 988.96289 3389.125 853.40039 C 3388.7875 852.76289 3388.1117 851.48711 3387.7617 850.84961 C 3145.2117 827.46211 2902.3 861.67578 2662.1875 894.73828 C 2651.475 897.40078 2635.5383 895.81289 2630.3008 907.90039 C 2602.0133 958.36289 2569.8508 1006.5871 2537.9258 1054.7246 C 2534.3633 1045.3871 2522.1383 1048.8758 2522.4883 1058.8008 C 2422.2383 1082.9758 2320.9871 1103.7125 2220.4121 1126.8125 C 2214.0621 1129 2206.7246 1128.9379 2201.1621 1124.9629 C 2196.9371 1127.5754 2200.3379 1135.2746 2194.7754 1136.1621 C 2121.9754 1155.4121 2049.5625 1176.6508 1976.5625 1194.8008 C 1960.025 1184.2008 1959.2633 1157.6133 1939.7383 1149.9883 C 1929.4133 1145.8133 1918.2246 1149.5633 1908.4746 1153.6133 C 1899.9746 1157.7758 1891.8617 1147.0625 1883.0742 1152.25 C 1863.8742 1166.4875 1843.9258 1180.2121 1826.0508 1196.0371 C 1774.5258 1162.4371 1749.0754 1103.1367 1714.4004 1054.2617 C 1706.7379 1017.7867 1676.8117 992.1 1652.7617 965.9375 C 1634.9742 934.5 1604.6258 913.12422 1582.4883 885.01172 C 1560.1383 859.02422 1540.6785 831.58551 1520.3281 803.86719 C 1508.2681 793.01136 1498.7867 780.5 1485.4492 771.875 C 1473.6367 710.3875 1431.9129 642.625 1363.6504 636.6875 C 1357.2754 613.2875 1362.0004 586.62539 1369.6504 563.21289 C 1367.8754 540.11289 1369.1379 515.91289 1379.7754 494.77539 C 1405.1754 428.38789 1390.0004 353.90039 1400.2754 287.02539 C 1394.8879 257.16289 1396.3133 225.45 1383.9883 197.25 C 1392.9008 164.225 1375.525 131.76289 1367.125 100.33789 C 1345.275 37.625391 1272.6508 -2.7003906 1207.8633 12.162109 C 1191.4383 2.7496094 1172.0242 1.7625 1153.6367 0 L 1150.0996 0 z M 994.17578 170.07422 C 994.18868 170.11395 994.21412 170.2119 994.22852 170.25781 C 994.19578 170.25386 994.1638 170.24507 994.13086 170.24414 C 994.14671 170.1878 994.15984 170.13052 994.17578 170.07422 z M 1374.918 499.46875 C 1374.8779 499.61613 1374.841 499.76481 1374.8008 499.91211 C 1374.7146 499.77635 1374.6486 499.63974 1374.5664 499.50391 C 1374.6862 499.50577 1374.8032 499.49494 1374.918 499.46875 z M 1332.6367 506.73828 C 1336.2867 509.31328 1331.0008 517.66172 1333.4258 522.07422 C 1341.9133 526.64922 1325.7633 550.075 1337.3633 551.0625 C 1333.4633 580 1332.225 610.27578 1329.5 633.42578 C 1312.9625 636.81328 1292.467 635.10523 1276.6504 627.30078 C 1273.5879 611.80078 1273.3996 595.88672 1271.4121 580.26172 C 1293.6996 556.37422 1306.6242 527.32578 1332.6367 506.73828 z M 738.16211 808.15039 C 736.58711 812.56289 727.31172 822.91172 721.01172 827.26172 C 724.92422 819.49922 730.44961 812.43789 738.16211 808.15039 z M 1646.6367 1195.6621 C 1666.4992 1204.2621 1686.3371 1215.575 1706.3496 1224.875 C 1714.5871 1236.9625 1723.3379 1249.3242 1730.0254 1262.3867 C 1713.9254 1266.2992 1698.1379 1272.575 1681.7754 1274.8125 C 1669.0754 1248.775 1655.7625 1222.9254 1639.3125 1199.0254 C 1641.6625 1197.7129 1644.1242 1196.6121 1646.6367 1195.6621 z M 1550.6504 1206.9004 C 1571.4379 1232.9379 1586.3883 1267.7121 1606.1758 1296.3496 C 1577.8008 1303.3121 1549.7996 1311.6879 1521.5371 1319.0879 C 1529.3246 1310.4754 1517.7367 1299.6758 1523.8867 1290.3008 C 1543.3492 1266.1883 1522.7879 1227.3004 1550.6504 1206.9004 z M 869.875 1366.4629 C 872.5 1375.2254 873.3125 1387.3371 875.25 1397.4121 C 870.2375 1389.3121 871.2 1376.3629 869.875 1366.4629 z M 882.36328 1371.5254 C 885.45078 1380.2629 888.20039 1395.3996 886.52539 1405.0371 C 884.07539 1394.0746 882.42578 1382.7754 882.36328 1371.5254 z "
     transform="scale(0.8,0.8)"
     id="path44589" />
</svg>
