<?xml version="1.0" encoding="utf-8"?>

<!DOCTYPE svg PUBLIC "-//W3C//DTD SVG 1.1//EN" "http://www.w3.org/Graphics/SVG/1.1/DTD/svg11.dtd">
<svg version="1.1" id="Layer_1" xmlns="http://www.w3.org/2000/svg" xmlns:xlink="http://www.w3.org/1999/xlink" x="0px" y="0px"
	 viewBox="0 0 1564 1790" enable-background="new 0 0 1564 1790" xml:space="preserve">
<path style="opacity:1;fill:#eeeeee" d="M1503.17,378.85c-2.67-9.4501-6.4601-18.5499-10.5701-27.46c-9.38-19.53-22.61-36.9301-37.1699-52.86
	c-19.4801-21-35.3-44.99-51.4701-68.53c-10.74-16.38-21.73-32.65-31.02-49.9299c-3.2699-6.3301-6.7-12.6101-11.0299-18.29
	c-1.61,0.3-3.1801,0.6199-4.75,0.97c-7.01-6.79-10.99-16.12-18.54-22.41c-6.08-5.58-13.0599-10.1901-18.39-16.5599
	c-3.58-4.24-8.74-6.5601-13.09-9.8601c-3.89-2.5999-7.39-5.7-11.12-8.5c1.04-5.1799,4.11-9.6599,5.13-14.8599
	c-6.04,1.6099-11.2101,5.2799-16.9401,7.6599c-1.22,2.13-2.87,4-5.1499,4.98c-1.7401,0.72-3.6101,2.4-5.53,1.3701
	c-2.11-2.4001-1.0601-6.3301-3.65-8.4401c-4.74-4.0699-9.54-8.16-14.96-11.3199c1.01,5.1799,1.38,10.49,2.9199,15.5499
	c0.79,2.86,4.54,3.74,5.0701,6.74c-0.25,3.51-4.36,6.4301-7.62,4.5699c-3.8501-2.26-8.38-1.1599-12.5901-1.3099
	c-5.5199-21.59-16.3899-42.02-32.6599-57.41c-12.24-12.6199-28.1801-21.23-44.9301-26.23c-4.29-1.4199-8.85-1.6599-13.13-3
	c-18.34-1.09-36.9299,3.97-52.36,13.91c-7.08,5.14-14.35,10.2001-20.0699,16.9c-5.55,6.25-11.4,12.5-14.9301,20.1799
	c-2.24,4.91-5.79,9.1801-7.26,14.45c-3.97,13.7001-8.25,27.4701-9.14,41.8c-0.35,9.0601-1.5499,18.0701-3.08,27
	c-0.8201,8.79,0.26,18.63,6.27,25.54c2.7999,5.0701,5.38,10.3101,7.1,15.86c2.27,7.09,5.29,14.0599,5.86,21.5699
	c0.63,7.3801,3.01,14.5901,2.49,22.05c-0.16,5.41-1.24,10.77-2.99,15.88c-0.84,2.5599-2.89,4.5599-3.48,7.23
	c-0.72,2.27-1.02,4.84-2.61,6.7001c-2.2001,1.8799-5.1901,2.6399-7.0901,4.8999c-2.7899,3.3-6.72,5.3101-9.5,8.6001
	c-2.6899,3.1899-6.8999,4.27-10.2899,6.49c-4.1,2-7.8199,5.34-12.59,5.4399c-1.8601-2.72-5.72-3.7-6.54-7.11
	c-0.51-1.88-1.9399-3.17-3.42-4.3099c-3.22-2.04-3.2-6.7001-6.73-8.4301c-3.22-1.65-2.76-6.26-6.0299-7.91
	c-3.53-1.72-3.28-6.5-6.7201-8.28c-2.5599-1.34-3.02-4.35-4.5-6.5499c-1.72-1.63-3.99-2.65-5.3199-4.66
	c-1.4-1.8101-1.99-4.0601-3.0601-6.05c-1.54-2.0299-4.48-2.8099-5.27-5.4199c-0.76-2.15-2.02-4.04-3.98-5.23
	c-3.02-1.5701-2.54-5.8-5.47-7.45c-3.66-1.9102-3.62-6.8901-7.3-8.79c-3.0699-1.78-2.86-6.1101-6-7.8201
	c-3.52-1.8-3.08-6.75-6.7-8.3799c-1.95-0.9102-2.96-2.7201-3.5601-4.6802c-0.6399-2.4399-3.1599-3.3499-4.74-5.0299
	c-1.23-2.38-2.09-5.08-4.54-6.52c-3.24-1.9301-3.2999-6.34-6.48-8.3199c-3.1399-1.8401-3.1799-6.14-6.28-7.98
	c-3.2799-2.4401-6.48-4.99-9.6599-7.55c-1.87,0.25-3.49,1.27-4.9199,2.4299c-3.8301,3.24-8.0801,6.25-10.4801,10.8
	c2.79,4.25,4.38,9.13,6.7301,13.62c1.23,2.01,3.8899,2.78,4.8599,5.02c0.9401,1.99,1.8701,4.08,3.8301,5.2999
	c3.29,1.9301,3.4399,6.4401,6.8101,8.29c3.3099,1.65,2.7599,6.29,6.1699,7.8301c3.1899,1.8899,3.24,6.3699,6.5,8.26
	c2.9099,1.74,2.98,5.6799,5.75,7.52c1.72,1.2799,3.3101,2.7799,4.02,4.8699c0.9299,3.55,5.36,4.28,6.29,7.8301
	c0.8599,3.78,5.5499,4.53,6.5499,8.21c0.9501,3.76,5.5399,4.72,6.59,8.41c0.92,2.92,4.0601,4.0199,5.9401,6.2
	c2.0399,1.88,2.5699,4.7001,3.9,7.03c1.33,1.34,3.08,2.23,4.27,3.71c0.8899,1.51,1.3499,3.25,2.33,4.7201
	c1.6801,1.6199,4.21,2.5599,4.89,5.02c0.6899,2.48,2.61,4.1199,4.6399,5.5499c2.3601,1.49,2.1501,4.87,4.4701,6.4
	c2.46,1.76,4.7799,4.05,4.7999,7.3c-5.24,3.2699-12.04,3.0699-16.8899,7.0599c-3.5,2.7699-7.6001,4.5399-11.7001,6.1901
	c-1.21,1.7799-2.4301,3.5599-3.58,5.3799c6.1299,3.91,12.71,7.02,19.0699,10.53c3.87,2.11,8.11,3.6899,11.4601,6.66
	c-3.42,2.4301-7.1901,4.39-10.3,7.24c-10.8501,9.38-16.96,22.7899-21.78,36c-6.3,22.6801-11.48,45.7-19.26,67.95
	c-3.1899,8.4701-4.4399,17.5-6.74,26.2201c-4.29,14.6699-9.87,28.95-16.13,42.8899c-3.96,7.72-7.9301,15.4401-11.59,23.3101
	c-2.14,4.36-3.38,9.1-5.6899,13.38c-3.51,7.4301-8.3401,14.13-13.2201,20.7101c-4.8099,6.7-10.96,12.2899-17.16,17.6699
	c-17.3699,14.9299-31.21,33.35-44.22,52.0701C815.71,659.87,808.21,669.78,800.3,679.31c-6.21,8.43-12.46,16.84-18.8301,25.15
	c-9.12,10.86-18.04,21.9-27.4299,32.53c-6.99,6.72-14.0601,13.36-21.39,19.73c-5.37,4.61-12.55,5.95-18.67,9.23
	c-4.3899,2.39-8.84,4.65-13.3899,6.72c-6.6802,3.06-12.6702,9.07-13.3801,16.69c-4.36-0.54-8.55-1.97-11.6299-5.23
	c-2.0901-0.18-4.4701,0.03-5.9202-1.79c-2.5099-3.15-6.73-3.03-10.23-4.26c0.7001-5.45,5.74-10.73,3.0601-16.25
	c-2.8,3.9-5,8.17-7.1499,12.44c-1.1101,0.78-2.2101,1.57-3.28,2.4c-5.6001-2.05-10.3701-5.78-15.9601-7.85
	c-31-15.07-62.1-29.96-93.1901-44.86C508.93,707.21,474.65,691.11,440.7,674.29c-16.97-7.4799-33.45-16.0099-50.33-23.69
	c-15.46-8.7699-32.04-15.33-47.95-23.2c-9.34-5.5599-19.66-9.1801-29.19-14.39c-9.84-5.04-20.09-9.21-30.01-14.0901
	c-11.67-5.2799-22.92-11.45-34.75-16.3799c-27.86-12.71-55.58-25.77-83.41-38.55c-16.24-8.01-32.9-15.13-49.3-22.8101
	C91.22,510.64,67.12,498.95,41.84,490.25c-2.47,0.02-1.1,2.87,0.3199,3.49c7.3,4.8301,14.92,9.1599,22.55,13.45
	c10.11,5.16,19.83,11.04,29.95,16.17c38.34,20.27,77.24,39.4701,115.92,59.09c8.18,3.54,15.51,8.7001,23.7,12.21
	c17.18,8.54,34.32,17.1501,51.63,25.4401c2.87,1.9401,5.82,3.7401,9.13,4.85c16.44,8.3901,33.17,16.1801,49.79,24.1801
	c6.4,2.83,12.35,6.5699,18.84,9.2101c8.4,4.3099,17.11,7.99,25.31,12.6899c4.58,1.97,8.78,4.71,13.39,6.62
	c11.16,4.98,21.56,11.53,32.91,16.11c46.01,22.19,91.8,44.86,137.78,67.12c23.5,11.1,46.49,23.28,70.1899,33.95
	c0.02,1.47,0.05,2.95,0.1,4.43c-2.35,4.45-5.13,8.96-5.5299,14.09c5.25-2.61,6.6699-9.24,10.45-13.43
	c1.85,1.03,3.54,2.3,5.1699,3.67c2.1401,1.99,5.5801,1.18,7.6901,3.25c1.72,1.44,3.5,3.05,5.89,3.11c4-0.08,5.77,4.59,9.78,4.64
	c3.73,0.3,5.72,3.96,9.1599,5.03c0.75,5.89-3.3099,11.59-1.05,17.39c0.9302,3.49,4.75,4.29,7.6301,5.55
	c4.27,1.8,6.76,5.96,10.36,8.67c3.62,2.19,8.0299,1.5,12.0599,1.65c3.77-0.13,7.3101,1.34,10.89,2.32
	c3.53,1.14,5.83,6.04,10.02,4.66c5.5499-2.1,9.66-6.62,13.0499-11.33c3.03,1.78,5.25,5.15,9.05,5.33
	c3.3201,0.13,4.77,4.05,8.05,4.28c2.24,0.3,4.4199,1.05,5.99,2.76c2.51,2.95,7.1899,1.49,9.64,4.53
	c2.1801,2.88,6.39,1.64,8.8099,4.1c1.5901,1.45,3.39,2.67,5.6201,2.86c3.6099,0.23,5.3999,4.21,8.96,4.56
	c4.01,0.11,6.01,4.5,9.97,4.78c2.78,0.03,4.63,2.05,6.55,3.76c2.1699,0.85,4.8599,0.51,6.6599,2.26c1.88,1.76,3.99,3.36,6.7,3.46
	c3.0601,0.28,4.5,3.74,7.4701,4.28c4.46,0.81,8.88,1.96,13.39,2.57c4.25-5.3,6.5699-11.89,8.8899-18.19
	c-4.25-2.83-7.7799-6.6-11.99-9.49c-2.7-0.77-5.74-0.99-7.6399-3.33c-1.8301-2.29-4.98-1.8-7.39-2.9
	c-1.3099-0.9901-2.36-2.27-3.7001-3.2c-2.2-1.06-5.1-0.3-6.8799-2.16c-1.49-1.3-2.9102-2.96-5.0701-2.88
	c-2.65-0.04-4.65-1.72-6.48-3.42c-2.12-2.07-5.7-0.94-7.6799-3.23c-1.7101-2.09-4.25-2.83-6.8101-3.19
	c-2.92-0.22-4.1899-3.61-7.02-4c-2.61-0.36-5.1001-1.24-6.86-3.26c-2.16-2.6-6.2401-0.98-8.39-3.53
	c-2.15-2.54-5.39-3.22-8.54-3.4901c-1.1799-1.18-2.24-2.49-3.61-3.42c-1.98-0.56-4.34-0.29-5.7699-2.01
	c4.0099-6.89,6.97-14.49,8.1699-22.39c0.71-4.48,2.1599-8.8199,3.97-12.96c1.22-2.97,4.38-4.3,6.6899-6.27
	c4.99-3.65,8.9601-8.42,13.4202-12.65c10.2799-10.42,20.45-20.9301,30.7699-31.3c14.3199-12.97,26.58-28.08,41.52-40.39
	c17.6901-15.69,38.47-27.9,53.9401-46.04c8.3099-10.1901,16.02-20.92,22.6499-32.2899c5.9399-10.29,14.0701-19.2001,19.1001-30.02
	c6.71-15,11.1099-30.97,18.4299-45.7001c0.51,0.02,1.51,0.0599,2.02,0.09c8.03,9.9001,18.54,17.4601,26.35,27.5801
	c7.2899,8.23,12.28,18.3201,14.86,28.99c0.87,7.3201-0.3999,15.1499,3.2001,21.9299c1.0599,4.1101,5.0399,6.04,7.48,9.16
	c0.5,2.2101,0.3099,4.51,0.23,6.77c-1.42,1.5599-2.41,3.4501-2.99,5.4701c-2.86,8.5698-5.23,17.2999-8.42,25.7699
	c-1.47,4.3,3.28,7.01,4.4501,10.76c-1.38,4.98,0.0599,10.05,0.23,15.08c0.61,9.02,1.2899,18.73,7.23,26.07
	c1.65,2.73,5.0699,3.11,7.95,2.54c-0.4099,4.72-1.2799,9.4-2.59,13.96c-3.4,5.13-3.88,11.62-6.73,17.05
	c-6.9,12.72-13.45,25.64-21.02,37.99c-4.6899,7.58-8.9,15.51-14.48,22.49c-2.04,3.92-4.47,7.61-7.05,11.19
	c-1.47,1.92-2.78,4.13-5.0699,5.18c1.88-5.28,4.7799-10.11,6.83-15.33c1.75-3.3,2.05-7.1,3.54-10.4901
	c1.74-5.17,4.55-9.93,5.9299-15.22c1.66-2.8,2.22-6.07,3.73-8.94c1.3601-3.81,4.28-7.93,2.3401-12.05
	c-2.2-3.22-5.6899-5.3-9.1899-6.84c-5.3601-2.28-11.2001-4.41-17.0901-3.22c-4.4099,4.21-5.3301,10.7-7.84,16.05
	c-3.4401,8.94-7.3199,17.73-10.29,26.83c-0.5,0.78-0.96,1.58-1.37,2.41c-3.29,9.04-7.11,17.88-10.55,26.87
	c-1.1599,2.52-2.3899,5.31-1.72,8.15c0.65,1.63,1.7,3.07,2.64,4.57c-1.08,0.86-2.0199,2.02-3.39,2.4
	c-8.1299,1.71-16.46,2.81-24.3101,5.59c-6.6599,3.24-14.1299,6.45-18.1399,13.02c-4.1001,6.63-2.04,14.64-1.0601,21.82
	c1.1301,9.86-2.99,19.17-7.46,27.68c-1.8301,3.28-4.25,6.51-4.1699,10.45c5.8099-2.36,9.1799-7.96,12.97-12.62
	c3.25-3.93,5.1099-8.83,8.6599-12.5c0.65-2.33,1.26-4.67,1.9401-6.98c2.24,3.92-0.25,8.58,0.7799,12.75
	c1.0901,2.86,2.99,5.36,3.8701,8.33c0.6899,2.54-1.8201,4.4-2.22,6.78c0.1399,2.44,1.95,4.59,1.6599,7.06
	c-5.0601,13.99-10.55,27.88-16.22,41.64c-2.21-1.68-4.77-2.61-7.46-3.14c-5.04-4.41-10.23-8.71-14.74-13.68
	c-3.76-0.5-7.6602,1.51-8.6501,5.32c-0.5499,3.63-0.7699,7.59,0.6101,11.08c3.55,5.32,8.6499,9.36,12.9399,14.06
	c3.1201,2.78-1.6599,6.55,0.1001,9.76c1.49,2.56,3.75,4.54,5.6299,6.8199c-1.29,3.82-2.9099,7.52-4.48,11.2401
	c-5.1499-4.04-7.8101-10.33-13.04-14.31c-3.6199-0.16-8.22,1.1299-8.8899,5.28c-0.67,4.53-0.21,10.19,3.76,13.16
	c3.53,3.05,6.33,6.85,8.72,10.85c-1.27,2.64-2.65,5.2401-3.8101,7.9401c-0.5,2.58,2.6301,4.67,1.64,7.24
	c-9.7699,26.49-20.16,52.76-30.09,79.2c-6.46,17.7201-13.4,35.3501-18.0801,53.64c-0.0999,7.85-3.47,15-5.7799,22.37
	c-1.0699,4.03-3.65,7.4701-4.59,11.55c-0.97,5.52-3.7001,10.52-4.92,15.99c-1.6901,10.03-2.35,20.25-5.15,30.0601
	c-5.63,17.22-5.12,35.72-10.98,52.8799c-3.27,11.0901-3.55,22.76-5.96,34.02c-0.49,5.6901-0.5701,11.53-2.5601,16.9701
	c-1.38,4.98-3.55,9.85-3.59,15.12c-0.67,7.6499-6.3199,13.35-9.67,19.9199c-3.3999,4.9501-3.45,11.3401-6.8101,16.3
	c-2.6199,4.29-7.26,6.6699-10.5199,10.4c-6.1901,6.51-12.7101,12.7-19.13,19c-4.0901,3.5499-7.39,7.9299-10.5601,12.2899
	c-3.9099,7.8501-12.34,11.87-17.03,19.12c-4.1499,4.16-9.0599,7.53-13.96,10.75c-5.8899,3.91-12.72,6-18.86,9.4401
	c-3.1901,2.39-6.08,5.1699-9.25,7.61c-2.89,2.4399-6.34,4.33-8.59,7.4399c-0.71,2.15-0.27,4.52-0.64,6.78
	c-0.98,4.47-2.59,8.78-4.36,13c-0.9299,4.75,1.1599,9.26,3.0701,13.48c1.6799,1.6801,3.8699,2.87,5.0999,5.01
	c1.01,0.75,2.02,1.5,3.05,2.28c7.0601,1.72,14.36,1.61,21.5701,1.2c5.03-0.3199,9.8699-2.1,14.9399-1.87
	c3.48,0.3401,6.5801-1.5399,9.96-1.9099c8.2-0.23,15.41-4.62,22.91-7.41c3.5599-1.11,5.78-4.38,9.1-5.9301
	c5.3601-2.3999,9.9399-6.1399,15.0601-8.99c4.36-3.46,9.6799-5.33,14.12-8.6599c3.35-2.52,7.16-4.24,10.87-6.14
	c5.8101-3.5801,12.55-5.1801,18.3999-8.7101c7.5-2.72,15.1201-5.1599,22.5801-7.98c4.79-2.77,11.54-4.13,13.55-9.95
	c1.26-2.6801-0.8101-5.4301-1.3701-8.03c0.0544-0.0369-0.9612-1.2244-0.96-1.23c0.6001-2.4401,1.3401-4.84,2.14-7.2
	c-1.58-5.6101-1.5499-11.4901-1.73-17.25c-2.01-6.5-5.98-12.6801-5.41-19.76c0.48-6.8301-2.79-13.3601-1.74-20.17
	c0.51-3.61,0.5601-7.3199,1.8301-10.76c2.34-6.66,5.8899-12.8099,8.45-19.39c2.8301-6.12,5.52-12.87,11.09-17.03
	c3.27-2.38,4.88-6.2999,7.9401-8.9099c4.5699-3.76,6.49-9.55,9.61-14.4c3.0299-4.86,1.97-10.87,3.95-16.0601
	c1.65-4.7,4.01-9.11,6.64-13.3199c4.9399-8.14,8.8-16.96,14.78-24.42c3.8201-6.8099,7.96-13.52,10.6499-20.89
	c2.74-8.61,4.2101-17.5699,7.2001-26.11c1.66-4.5699,2.2899-9.4399,4.14-13.9399c1.3999-3.88,3.24-7.62,4.24-11.62
	c0.86-5.9,1.6699-11.8,2.46-17.7001c2.28-10.99,9.8801-19.8099,16.29-28.6799c3.9399-6,9.05-11.1901,12.3101-17.65
	c2.5499-5.75,6.7899-10.5,9.7899-16c6.2101-11.51,12.39-23.04,18.91-34.38c2.89-4.3,4.96-9.42,9.45-12.36
	c4.2-2.96,6.64-7.55,9.48-11.6901c5.74-7.61,11.24-15.4099,16.6401-23.2699c6.4399-3.0601,9.5499-9.7001,14.09-14.79
	c3.09-3.25,4-7.79,6.49-11.4401c2.3099-5.1,5.09-9.9999,6.9099-15.2999c4.65-4.61,8.0601-10.83,14.2001-13.65
	c2.79-1.49,4.83-3.96,6.71-6.43c4.4501-6.3,10.13-11.82,12.85-19.18c9.8301-11.75,18.9701-24.21,30.1901-34.72
	c5.64-4.5,11.2-9.48,18.1-11.93c8.08,0.91,16.03,2.99,24.16,3.36c3.2,0.51,6.02-3.0699,9.08-1.58c5.52,4.37,8.33,11.09,10.76,17.5
	c5.88,13.28,7.02,28.07,12.6901,41.42c2.97,7.07,3.1299,14.95,6.2999,21.96c2.14,4.82,3.23,10.12,6,14.66
	c4.01,6.55,5.5601,14.21,9.03,21.02c2.98,5.37,2.78,11.7201,4.53,17.5c1.21,3.9801,1.9399,8.0801,2.25,12.2301
	c0.36,6.4299,3.14,12.33,4.83,18.46c1.1899,4.3199,3.3101,8.3199,4.6,12.62c3.01,13.83,7.79,27.22,10.52,41.13
	c0.52,3.4399,3.67,5.61,4.62,8.88c4.04,16.7,9.8101,32.97,12.91,49.9c2.5,10,4.5599,20.2799,9.45,29.46
	c2.34,7.17,3.75,14.75,7.8,21.27c3.5699,5.47,6.6799,11.2999,8.46,17.62c1.59,5.6,4.01,10.98,5.04,16.74
	c1.9299,3.1899,2.89,6.84,3.41,10.51c0.5099,4.45-0.4,9.01,0.75,13.4c1.5699,5.7899,1.5499,11.86,3.12,17.6699
	c0.87,8.35,4.87,15.8401,7.5399,23.6801c4.02,10.63,9.51,21.15,9.66,32.76c0.59,13.3199,5.39,25.88,8.99,38.5699
	c1.79,6.64,4.76,12.9,6.39,19.6c4.3099,14.62,4.8,30.03,8.67,44.75c1.11,3.9401,0.3899,8.01,0.34,12.03
	c-0.22,4.78,2.3199,9.49,6.1699,12.27c1.3501,1.15,3.2001,2.0601,3.7001,3.9399c1.67,5.63,2.67,11.4401,3.91,17.1901
	c1.51,8.14,3.35,16.33,3.1,24.67c0.65,11.84-3.9,23.21-3.9601,35.0199c-0.97,10.65-1.2699,21.5701-4.9399,31.7301
	c-1.8199,5.58-2.22,11.47-3.17,17.23c-0.89,4.5699-1.11,9.2899-0.61,13.9299c0.66,2.1901,3.36,2.3201,5.14,3.2101
	c-0.77,9.95-4,19.49-6.96,28.96c-1.1801,3.17-3.16,6-3.98,9.3199c-1.05,3.41-0.15,7.14-1.4601,10.5
	c-1.1899,2.99-1.6799,6.4-3.9299,8.8601c-1.88,1.95-2.4501,4.6-3.02,7.1599c0.5699,4.9,1.13,9.79,2.36,14.5901
	c0.71,1.1399,1.64,2.1799,2.73,3.0499c0.04,0.9501,0.09,1.9301,0.16,2.9401c2.2456,3.6478,5.9968,6.0945,10.2456,6.5907
	l-0.1931,0.0468l15.4575,2.3225c2.0599,0.52,4.1899,0.9299,6.36,0.74c5.26-0.46,10.5599,0.0601,15.8199-0.58
	c8.03-0.87,16.29-0.5701,24.1101-2.89c6.5599-1.41,13.5599-2.1,19.45-5.53c7.22-4.4399,9.39-13.33,10.03-21.21
	c0.13-8.2001,2.7999-16.3401,1.34-24.53c-1.91-11.42,0.12-23.1-2.29-34.48c-0.02-3.9501-3.33-6.5601-4.4199-10.0701
	c0.01-5.27,0.8999-10.63-0.29-15.8199c-2.15-7.26-5.01-14.46-5.4301-22.09c-0.24-7.39-0.9199-14.87-3.46-21.8601
	c-1.9-5.2999-1.74-11.0399-3.59-16.34c-1.62-4.4399-0.47-9.21-0.8301-13.7899c-0.5599-10.4901,0.3301-21.02-0.8099-31.4701
	c-0.4301-6.5299-0.11-13.08-0.1801-19.62c-0.1599-7.7999,2.67-15.28,2.77-23.0599c0.9-11.29,2.27-22.5601,1.98-33.9
	c0.4701-12.35-1.0399-24.6801,0.0701-37.03c1.1899-11.1699,2.22-22.35,3.5499-33.5c1.26-8.25-1.7699-16.25-2.5-24.38
	c-0.6699-8.75-2.4199-17.37-3.99-25.98c-2.6799-6.38-3.5599-13.35-6.39-19.66c-5.0699-10.9399-7.24-23.2999-14.49-33.1799
	c-4.87-8.03-9.11-16.62-10.75-25.9401c-1.4299-8.15-4.5499-15.95-5.01-24.26c-0.2999-7.1-4.25-13.23-5.63-20.08
	c-1.35-4.9-1.0099-10-1.1599-15.01c-0.05-3.76-2.04-7.23-1.62-11.02c-1.36-24.63-1.23-49.34-1.89-74
	c-0.6801-5.7899-0.9301-11.64-0.21-17.4299c3.99,0.0299,7.96,0.5299,11.96,0.71c1.4199-0.01,3.13,0.26,4.21-0.96
	c3.29-3.01,5.63-7.9701,3.9401-12.37c-1.3401-4.52-5.0901-7.7201-8.54-10.66c-3.55-2.17-8.02-1.26-11.95-2.08
	c-0.5601-7.03-0.5601-14.1001-0.2101-21.13c0.0601-3.9601-0.9199-7.87-0.6-11.8201c0.04-1.1699,0.97-2.0599,2.17-1.9399
	c3.9299-0.2101,7.9199,0.9299,11.8099-0.04c3.49-1.98,5.87-6.1,5.88-10.11c-0.74-5.41-5.12-9.95-10.0499-11.95
	c-3.3401-0.47-6.7401-0.27-10.0701-0.78c-0.3099-3.73-0.0599-7.47-0.39-11.18c-0.99-6.02-0.21-12.12-0.4299-18.18
	c0.1699-4.76-0.63-9.61,0.6-14.28c4.12-1.89,7.24-6.06,7.2-10.66c-0.6799-4.71-4.6799-7.64-7.96-10.6c-0.22-10.5-0.29-21-0.4-31.5
	c0.25-12.9-1.2999-25.82,0.03-38.7c8-1.57,16.21-5.4,20.48-12.68c2.75-3.95,4.11-9.54,1.59-13.91
	c-4.0599-4.9399-11.0699-4.77-16.5199-7.2599c-0.0801-2.79-0.77-5.51-1.1901-8.2401c0.2-2.3199,0.6901-4.67,0.02-6.95
	c-0.89-2.81,0.5-5.72-0.29-8.54c-0.71-2.91,0.03-5.9-0.45-8.82c-0.74-3.7,1.13-7.5699-0.75-11.08c0.21-1.58,0.84-3.14,0.62-4.73
	c-1.3201-7.27,0.1-14.75-1.03-22.04c0.3-1.92,0.61-3.83,0.89-5.74c4.83,4.21,8.5599,9.47,12.79,14.25
	c7.89,9.16,15.35,18.69,23.2,27.9c4.21,5.41,18.6801,22.95,21.1901,26.75c5.5599,6.07,10.8799,12.35,16.58,18.3
	c4.54,4.52,8.7999,9.62,14.6799,12.48c1.9,0.88,4.54-0.7,3.8201-2.93c-0.3378-1.0468-0.6755-2.1129-1.1178-3.1201
	c-0.3236-0.7368-5.207-9.4435-5.2462-9.497c-0.8168-1.117-19.5802-27.2238-20.057-27.9756
	c-3.2445-5.1164-7.259-9.5472-8.989-12.0172c-11.0699-15.2-22.59-30.05-33.79-45.15c-11.08-14.03-21.3799-28.66-32.5299-42.64
	c-11.1901-14.38-22.41-28.72-33.5701-43.13c-11.97-16.43-25.21-31.89-37.0299-48.43c0.22-1.3099,0.45-2.62,0.6799-3.92
	c-1.52-0.0499-3.02-0.08-4.51-0.0999c0.3201-3.6401,0.54-7.8-2.34-10.54c-2.2001-3.04-6.77-2.29-9.16-4.77
	c-0.6-5.1101,3.5-9.5801,2.9301-14.6899c-1.73-3.55-5.24-5.77-7.77-8.7001c0.54-1.77,1.65-3.4701,1.5699-5.37
	c-0.63-3-2.09-5.8401-1.87-8.97c0.0801-3.3701-0.1599-6.72-0.9199-10c-1.3201-5.4,1.4099-10.65,1.2899-16.04
	c-0.11-5.3301,0.66-10.6001,1.29-15.87c0.59-4.63,0.03-9.34,0.8101-13.9601c2.8899-20.6499,0.6799-41.53,1.7799-62.27
	C1266.3,443.3101,1266.66,428.09,1276.3,417.26c4.73-5.3201,7.4099-12.4,13.21-16.73c3.55-2.8101,8.23-2.6301,12.52-2.53
	c8.7899-0.39,15.71,6.1799,24,7.96c6.51,1.3101,12.95,2.96,19.39,4.6001c5.75,1.6599,11.7999,1.76,17.64,3.1199
	c11.7599,1.73,23.25,4.9,34.48,8.75c9.87,4.27,20.38,6.7101,30.8099,9.1801c11.75,2.35,24.0701,2.28,35.73-0.62
	c8.9401-1.8401,17.8101-4.6699,25.7301-9.29C1503.4,412.79,1508.1899,393.84,1503.17,378.85z M939.3,886.43
	c-1.96,4.48-3.0801,9.52-6.1301,13.42c-3.8699-0.24-4.5898-4.94-6.47-7.5699c-1.1599-2.94-4.48-0.6801-6.4199,0.0699
	c-0.48,1.47-0.9399,2.95-1.3701,4.45c-0.4299-0.73-0.8398-1.46-1.23-2.18c1.49-6.87-0.08-15.93,6.55-20.46
	c5.97-3.52,12.89-6.25,19.91-6.03C944.6799,874.62,941.3,880.46,939.3,886.43z M1047.72,709.04c0.1,2.93-1.6699,5.4-2.47,8.11
	c-0.98,2.5699-0.91,5.77-3.35,7.53c-0.72-6.89,0.38-13.81,0.23-20.71c0.16-4.65-0.84-9.87,1.9301-13.9399
	c1.59,0.08,2.7799,1.1299,3.1799,2.6899C1048.84,698.01,1047.8199,703.61,1047.72,709.04z M1373.71,850.96
	c1,0.63,2.02,1.27,3.0601,1.92c-1.28,0.98-2.53,2-3.76,3.03c-2.7,0.06-5.39,0.02-8.03-0.52
	C1366.34,851.74,1370.48,851.63,1373.71,850.96z M1361.99,873.8c-1.27,0.02-2.53,0.03-3.77,0.05c-0.08-1.74-0.1599-3.49-0.1899-5.22
	C1360.6,869.24,1362.16,871.12,1361.99,873.8z M1253.37,119.88c-1.6,2.9401-4.24,5.09-6.76,7.1801
	c-0.3199-0.04-0.96-0.1401-1.27-0.1801c-0.3099-2.2201-0.24-4.4701-0.2799-6.7001C1247.8199,120.0601,1250.59,119.9,1253.37,119.88z
	 M1351.03,1050.02c0.14,6.1,0.21,12.4399-1.65,18.2999l-1.87,0.8c0-6.76-1.39-13.41-1.6801-20.14
	c-0.4399-3.51,1.7101-6.53,3.24-9.49C1351.14,1042.58,1350.64,1046.48,1351.03,1050.02z M1348.61,1012.68
	c-2.7,0.35-5.39,0.63-8.08,0.9c-1.98-3.85-4.48-8.38-2.85-12.77c2.3199-3.5,6.97-3.11,10.62-3.78
	C1348.6,1002.23,1349.02,1007.46,1348.61,1012.68z M1259.83,647.01c0.77-0.15,2.3101-0.46,3.0801-0.61
	c13.5,16.46,26.63,33.2,40.3199,49.5c12.17,14.5099,23.46,29.71,35.5601,44.27c2.6799,3.04,5.25,6.18,7.71,9.42
	c-0.01,0.42-0.02,1.25-0.02,1.66c-3.1-0.1-6.76,1.06-7.25,4.58c-0.71,6.23-5.8099,11.72-4.16,18.17c0.75,3.12-0.45,6.32,0.3601,9.46
	c0.0199,12.77,0.5399,25.65,0.7799,38.43c-0.46,2.46-0.1899,4.95,0.53,7.34c-2.09,4.44,1.5,9.07-0.8099,13.43
	c-5.76,2.04-10.9601,5.81-14.4701,10.82c-2.6499,4.25-4.2,10.46-0.46,14.57c5.95,6.01,14.73,7.18,22.53,9.3
	c0.63,11.46,1.4299,22.95,1.21,34.4301c-7.7-0.1-15.6799-1.28-22.67-4.64c-0.8899-5.27-3.34-10.08-4.5599-15.26
	c-1.3201-4.09-1.38-8.45-2.73-12.52c-0.8201-1.82-1.4301-3.72-1.9-5.64c-2.62-9.53-5.55-18.97-9.08-28.2
	c-1.24-5.25-3.5701-10.21-4.17-15.6c-0.65-5.08-3.01-9.79-3.1901-14.93c-0.1499-6.15-2.6799-11.91-2.85-18.05
	c0.03-3.44-1.5599-6.58-2.01-9.93c-0.4099-3.86-2.9199-7.11-3.2699-10.98c-0.42-3.5601-1.64-6.91-3.2001-10.11
	c-1.08-4-1.1-8.21-1.91-12.27c-1.09-1.73-2.22-3.52-2.45-5.58c-0.34-5.03-2.6801-9.6-3-14.65c-0.42-2.29-0.92-4.55-1.4301-6.8
	c-0.4299-0.49-1.2999-1.46-1.73-1.95c-0.0499-0.53-0.1699-1.57-0.23-2.09c-0.5499-0.88-1.1-1.74-1.62-2.6
	c-1.04-3.09-2.09-6.18-2.65-9.39c-0.4099-0.22-1.24-0.6801-1.65-0.9c-0.33-1.82-0.6699-3.62-0.96-5.42
	c-1.3099-1.11-2.6899-2.15-4.09-3.11c0.0499-13.16-5.1-25.53-8.6901-37.9901c-1.2899-4.9299-1.5299-10.0599-1.23-15.1299
	c0.29-4.4301-1.36-8.6901-1.12-13.1201C1256.71,637.4099,1259.98,641.85,1259.83,647.01z M1334.02,863.05
	c0.0599,4.91-8.86,5.59-10.29,1.25c1.41-0.73,4.3101-2.14,4.3101-2.14s0.0187,0.0694,0.0225,0.0275L1334.02,863.05z
	 M1379.8199,335.8999c-2.9399-2.47-5.6499-6.0999-9.8199-6.1699c-2.73-0.2-5.27,0.96-7.9301,1.1899
	c-8.9099-5.2899-19.45-7.1499-28.0199-13.0699c-16.2301-10.5499-35.74-15.73-55.05-15.2799
	c-2.8199,0.0798-5.64,0.0099-8.4399-0.2401c-0.01-0.46-0.04-1.38-0.05-1.83c4.28-4.8301,9.09-9.16,13.4-13.97
	c0.02-0.29,0.08-0.8801,0.11-1.17c-6.73-2.2001-13.53-5.83-20.8101-4.7001c-4.49,0.9401-8.6699,2.9501-13.1499,3.9102
	c-4.28,1.1899-8.7101-0.52-13.01,0.5798c-9,1.6801-18.05-0.1299-27.0601-0.6099c-4.42-0.42-8.88-1.1401-12.76-3.41
	c0.3201-3.5699,3.21-6.03,4.96-8.9501c10.92-18.9099,22.01-37.9199,29.6101-58.47c5.7-15.74,7.3199-32.52,11.9299-48.5601
	c3.66,0.7101,5.34,4.3601,6.47,7.53c1.92,2.9401,5.4,4.79,8.8101,5.3901c5.64-0.26,9.6799-4.6901,14.22-7.4801
	c7.11,6.92,13.52,14.66,21.5,20.6901c6.98,5.61,15.9301,7.7,23.41,12.5c5.15,2.74,6.63,8.86,9.97,13.26
	c15.67,22.76,28.8,47.09,43.01,70.75c6.65,11.48,11.8,23.73,17.24,35.7999c2.04,4.63,4.4401,9.1801,5.36,14.2101
	C1389.09,337.12,1384.53,335.85,1379.8199,335.8999z"/>
</svg>
