<?xml version="1.0" encoding="utf-8"?>

<!DOCTYPE svg PUBLIC "-//W3C//DTD SVG 1.1//EN" "http://www.w3.org/Graphics/SVG/1.1/DTD/svg11.dtd">
<svg version="1.1" id="Layer_1" xmlns="http://www.w3.org/2000/svg" xmlns:xlink="http://www.w3.org/1999/xlink" x="0px" y="0px"
	 viewBox="140.3901 -9.3294 2855.5786 2885.5649" enable-background="new 140.3901 -9.3294 2855.5786 2885.5649"
	 xml:space="preserve">
<g>
	<path style="opacity:1;fill:#eeeeee" d="M1576.29,70.11c4.7899,1.09,9.89,2.59,13.1799,6.49c1.26,1.09,0.4,2.74,0.14,4.06c-3.66,11.91-8.71,23.32-13.1899,34.93
		c-2.5601,5.75-1.5701,12.2-1.6801,18.31c0.0701,5.01-0.38,10.03-0.08,15.04c1.0599,1.11,2.58,2.18,2.27,3.96
		c0.1699,1.44-1.77,1.83-2.52,2.75c-0.03,1.27-0.02,2.54,0.01,3.82c2.7699,0.04,5.1599,2.13,4.0699,5.07
		c-1.45,1-3.09,1.69-4.59,2.52c2.1699,0.3,6.0499-0.26,5.86,3.1c0.6,2.84-3.09,2.83-4.84,3.62c7.24,20.48,14.7,40.88,22.1799,61.26
		c2.35,7.94,6.64,15.08,10.4401,22.38c5.4399,10.2,11.1899,20.25,16.4199,30.57c2.11,3.93,3.92,8.04,6.52,11.7
		c1.5601-4.88,2.53-9.95,4.46-14.7c2.05-4.04,3.8201-8.21,5.55-12.4c2.5601-7.17,8.39-12.35,12.59-18.52
		c1.7001,0.97,3.4301,1.97,5.2001,2.88c-0.97-1.51-2.0701-2.95-3.15-4.36c1.16-0.95,2.13-2.71,3.92-2.34
		c5.5499,1.52,8.3899,6.93,11.12,11.52c2.2799,3.57,2.1499,8.06,4.21,11.74c3.76,6.44,5.8,13.66,8.37,20.62
		c1.51,3.72,1.1,7.8,1.8101,11.66c3.0099,5.71,2.61,12.35,4.2799,18.46c3.88,13.74,8.3,27.32,11.6,41.22
		c0.88,4.17-1.1299,8.25-1,12.42c1.0601,2.71,2.8601,5.13,3.6101,7.98c1.51,5.91,1.88,12.12,4.33,17.77
		c1.5699,3.25,1.15,6.92,1.47,10.41c0.17,3.25,1.85,6.12,2.75,9.2c1.3,4.35-0.02,9.12,1.8,13.36c1.22,2.98,1.9299,6.14,2.36,9.33
		c0.65,5.04,2.83,9.86,2.47,15.02c-0.5,5.26,2.03,10.08,2.5601,15.23c1.24,10.88,0.24,21.88-1.2201,32.69
		c0.12,7.37-0.23,14.82-2.48,21.9c-1.76,4.66-4.6899,8.75-7.02,13.12c3.4501-4.06,6.9801-8.2,9.2201-13.08
		c1.11-3.96,1.11-8.14,2.1799-12.12c1.1901,12.8-2.98,25.05-5.76,37.34c-1.14,7.95-4.08,15.86-2.5699,23.97
		c0.78,5.54,0.52,11.27,1.96,16.7c4.35,8.13,8.49,16.39,13.27,24.3c2.62-4.32,6.5699-7.91,8.03-12.87
		c2.63-7.86,5.6-15.62,8.01-23.55c1.65-6.67,1.59-13.6201,2.36-20.42c0.62-5.07-0.86-10.15-0.13-15.18
		c5.1-5.75,11.35-10.81,18.53-13.73c-0.5801,6.54-0.38,13.17-1.61,19.65c-0.9,5.6801-1.7401,11.38-2.15,17.1201
		c-0.0601,6.14,0.47,12.28,1.01,18.4c3.33-0.63,6.9199-0.46,10.0699-1.85c6.4-5.01,12.41-10.53,18.51-15.91
		c5.38,1.58,8.97,6.15,12.5601,10.17c-13.05,13.58-27.39,25.87-42.2001,37.49c-6.75,6.36-13.51,12.79-18.75,20.5
		c0.72,0.23,2.16,0.7,2.88,0.94c0.22,1.16,1.36,2.62,0.34,3.71c-1.13,0.88-2.4399,1.49-3.6599,2.17
		c3.0199-0.4901,5.63,1.02,7.5599,3.22c-0.15,0.65-0.4399,1.95-0.59,2.6c1.12,1.44,2.34,2.88,2.98,4.65
		c1.13,1.76-1.46,2.57-2.42,3.43c5.9801,9.33,9.63,19.8,13.78,30.01c4.85,9.51,6.63,20.13,9.41,30.35
		c5.63,18.59,7.71,37.97,12.0599,56.86c5.0601-2.77,10.7201-4.78,14.87-8.95c3.62-3.4,8.3201-6.55,9.2101-11.82
		c1.88-8.73,3.2-17.58,5.6799-26.17c0.7101-3.65,2.2001-7.07,4.14-10.23c3.61,2.27,7.17,4.65,10.87,6.79
		c0.35,10.59-1.63,21.07-3.24,31.49c-0.5699,4.82-2.4299,9.43-4.85,13.61c-6.3101,7.76-15.92,11.44-23.77,17.29
		c-5.2,3.91-10.72,7.37-15.89,11.31c-1.71,1.19-2.58,3.12-3.53,4.8799c1.1201,0.66,2.29,1.34,3.4601,2.02c3.01-1.21,6-2.53,8.7-4.38
		c10.1-7.1,20.8101-13.76,32.79-17.17c3.01-0.82,6.9399-1.77,9.33,0.96c2.72,3.4,3.0701,8.03,3.0801,12.24
		c-2.3101,2.46-4.7101,4.96-7.87,6.32c-7.3501,3.58-13.3301,9.34-18.6101,15.47c-4.2799,4.99-9.49,9.04-14.0599,13.74
		c-1.26,1.18-2.42,2.59-4.11,3.12c-6.22,2.15-12.49,4.15-18.77,6.1c-5.77,1.53-9.66,6.33-14.26,9.78c-3.38,2.92-7.27,5.33-9.97,8.96
		c-4.3201,5.57-9.84,10.21-13.6,16.2c-1.6001,5.1-4.17,10.44-2.8,15.89c0.79,3.72,4.22,6.09,5.46,9.64
		c1.9601,5.34,4.1901,10.88,4.3101,16.61c-7.25,12.97-17.61,23.8701-26.0801,36.01c-1.8799,4.49-3.2899,9.17-5.1899,13.66
		c1.04,0.49,2.08,1.06,3.1,1.7c-0.58,2.77-0.9,5.5699-1.27,8.3799c-1.3999,0.4-2.7799,0.22-4.1599,0.19
		c1.3199,0.4301,2.76,0.8,3.97,1.64c-0.14,1.26-0.3201,2.53-0.52,3.8c-1.51-0.09-2.9399-0.14-4.4-0.21
		c1.36,0.43,2.72,0.87,4.12,1.33c-0.2899,1.39-0.5299,2.82-0.7899,4.23c-1.3601-0.07-2.7001-0.13-4.01-0.18
		c-2.38,14.79-3.4,29.77-5.2001,44.65c15.49,1.1899,31.27,0.01,46.4501,3.9399c10.74,3.0701,22.0499,2.54,33.0499,3.99
		c6.6,1.62,12,7.59,12.7101,14.39c0.5399,3.33-0.4401,6.63-1.4401,9.78c3.3101,1.83,6.91,3.1799,10.01,5.37
		c3.89,5.28,5.51,11.74,6.86,18.0599c0.84,3.02,1.52,7.0701,5.05,8.0901c-1.5-7.1801-2.65-14.42-4.49-21.52
		c3.24,6.61,3.73,14.0699,5.83,21.0499c262.5599,13.53,525.15,26.8101,787.7301,40.28c19.3098,0.9,38.6199,2.09,57.9399,2.86
		c1.4199-1.1799,2.8398-2.36,4.3101-3.51c27.3098,1.3201,54.6299,2.74,81.95,4.14c7.01-8.89,13.74-18.01,20.8599-26.8199
		c43.9502,13.0499,88.02,25.75,132,38.7c5.27,1.86,10.52,3.8101,15.7002,5.9501c2.8098,0.96,1.99,5.1499-0.78,5.5299
		c-6.55,1.79-13.05,3.8201-19.75,4.92c-43.04,7.92-86.0901,15.84-129.1201,23.84c-5.8499-8.73-11.8201-17.37-17.5999-26.1499
		c-0.9102-1.15-1.6301-2.9-3.3401-2.7001c-26.3401-1.47-52.6899-2.88-79.03-4.29c-2.96-0.0299-5.1199-2.3099-7.1001-4.1799
		c-272.96-14.66-545.9099-29.2001-818.8699-43.8201c-8.13-0.59-16.3101-0.47-24.41-1.3999c-2.28,6.6-2.27,13.85-5.46,20.1799
		c1.4299-6.83,2.89-13.6699,3.6699-20.61c-4.1,5.47-3.37,12.74-6.4199,18.66c-1.2101,2.08-2.75,3.9399-4.17,5.88
		c-4.26,1.1699-8.59,2.09-12.79,3.4c-4.3199,1.5199-8.4099,3.6-12.6299,5.3199c0.72-1.39,1.47-2.75,2.24-4.11
		c-3.5701,3.23-7.9601,6.1799-13.03,5.47c-7.27-1-14.62-0.65-21.86,0.28c-1.17,0.22-2.2201,0.6799-3.17,1.38
		c5.9401-0.1801,11.51,2,17,3.97c5.03,2.0701,7.34,7.96,6.59,13.12c-0.7699,8.38-9.98,14.9401-18.13,12.1901
		c-20.5199-5.6001-41.8899-6.3601-62.74-10.13c-0.4399,3.89-1.13,7.75-1.62,11.64c2.79,1.1299,4.38,4.0399,2.35,6.73
		c0.3101,1.8199,0.63,3.74-0.71,5.27c0.4301,1.7699,0.2001,3.59-0.29,5.35c-0.1299,1.47-0.23,2.95-0.33,4.45
		c-1.41,0.1-2.7999,0.21-4.17,0.34c-1.6899,9.9301-1.2999,20.0601-2.0399,30.1001c-0.76,8.96-0.01,17.9299-0.0601,26.9099
		c-0.1799,6.75,3.3401,12.73,5.02,19.0901c0.75,2.9399,2.4501,5.49,3.98,8.09c4.99,8.53,9.9301,17.1799,16.36,24.74
		c4.75,6.95,13.8501,8.5699,19.8101,14.11c4.89,7.17,9.5,14.55,13.99,21.99c3.17,5.61,8.05,9.9,12.52,14.4401
		c3.46,3.21,7.83,5.48,10.4199,9.58c-2.48,4.6-5.4299,8.92-7.98,13.48c-9.24-0.88-16.7-7.12-24.09-12.1799
		c-6.66-5.3401-13.1-10.99-18.8099-17.3401c-1.8501-2.1-4.3201-3.47-6.91-4.35c1.89,6.96,8.1,11.37,12.1799,17.01
		c6.0601,8.24,14.4401,14.61,19.49,23.61c2.6101,3.65,2.29,8.4,2.5,12.6801c-1,11.38-2.09,22.9-5.74,33.7999
		c-3.7699,1.5701-7.5599,3.4401-11.71,3.5601c-2.14-4.8-1.4399-10.16-1.38-15.23c0.0701-7.3501,0.95-14.65,1.33-21.98
		c0.28-4.8101-2.95-8.6901-5.33-12.53c-3-5.14-7.63-9.05-12.11-12.8401c-10.91,14.63-20.77,30.0801-32.75,43.8701
		c-10.09,13.5399-21.9301,25.61-32.88,38.4299c-10.74,12.54-22.23,24.4401-32.42,37.45c-12.24,14.8-24.96,29.2101-36.5599,44.53
		c-0.87,1.02-1.79,1.98-2.66,3.01c1.38,1.12,2.78,2.28,4.1901,3.4401c-0.75,1.5399-1.6901,2.99-2.88,4.25
		c-1.8-0.9801-3.5701-1.9301-5.3401-2.89c-0.22,0.46-0.6699,1.38-0.8999,1.84c1.4399,1.27,2.7999,2.66,4.0299,4.1801
		c-1.0499,0.9099-2.08,1.83-3.11,2.7699c-1.6799-0.8999-3.08-2.97-5.11-2.7699c-0.6,2.22,2.74,3.11,2.76,5.23
		c-0.13,1.38-1.63,2.03-2.41,3.02c-1.2899-1.0701-2.51-2.0801-3.75-3.12c-10.75,12.75-20.5299,26.2999-29.51,40.34
		c-12.0199,32.3199-20.9199,65.76-33.98,97.7c-2.63,7.13-5.08,14.3301-7.89,21.4c-2.4299,7.04-6.8199,13.14-10.5,19.5601
		c-3.5,5.0699-5.84,11.0499-10.51,15.24c-10.71,10.3099-21.71,20.33-31.9199,31.14c-11.9401,12.3899-23.89,24.7699-35.76,37.23
		c-3.8201,3.9199-6.61,8.6599-9.85,13.0399c-10.88,14.6801-21.29,29.6901-32.13,44.39c1.38,1.1901,2.76,2.4301,4.09,3.74
		c-0.83,1.26-1.63,2.5801-2.4401,3.88c-0.85-0.15-2.5499-0.4299-3.3899-0.58c0.9399,0.95,1.87,1.9,2.84,2.89
		c-0.66,1.22-1.2001,2.5599-1.99,3.74c-1.27,0.11-2.52,0.1799-3.76,0.22c-0.21,0.8101-0.4,1.65-0.5701,2.52
		c0.5,1.15,2.3501,2.11,1.65,3.5699c-0.25,1.91-2.11,2.66-3.59,3.4801c-1.7,8.5699-4.9,16.8099-6.15,25.47
		c0.85,13.45,3.92,26.75,3.9301,40.28c-4.88,2.25-10.76,4.87-15.8101,1.6399c-1.63-4.4199-4.15-8.46-5.75-12.87
		c-2.2-9.99-4.37-20-6.08-30.08c2.0599-12.08,5.2-23.96,7.65-35.97c-1.78-1.47-3.54-2.9401-5.27-4.42c1.89-3.1,3.1899-6.49,4.7-9.78
		c1.4601,0.16,2.9301,0.3501,4.42,0.55c0.2-0.4,0.6-1.21,0.79-1.62c-1.1101-1.14-2.8101-1.91-3.3-3.47
		c0.4-1.2101,0.87-2.37,1.39-3.5c0.66-0.0801,1.97-0.2201,2.63-0.29c32.5599-248.2,65.27-496.38,97.7999-744.58
		c-8.61-1.02-17.6-0.9701-25.64-4.6001c-4.23-1.8199-7.9099-4.6299-11.48-7.47c-12.14,5.05-26.9099,1.39-35.4099-8.59
		c-3.05-4.2-8.1101-5.86-12.2101-8.73c-6.35-4.23-13.0699-7.8301-19.9099-11.17c-8.9401-4.4399-19.1001-4.9199-28.5801-7.63
		c-9.59-2.7-19.34-4.77-28.85-7.74c-11.71-3.97-23.59-7.4299-35.17-11.77c-8.4399-3.0499-16.5199-6.97-24.85-10.27
		c-8.84,3.65-18.53,4.12-27.95,3.3c-1.41,1.66-2.8301,3.3101-4.27,4.95c-0.33,4.54-1.11,9.1901-3.58,13.1101
		c-2.26,3.45-3.6801,7.3199-4.8601,11.25c-0.63,2.23-1.7599,4.5399-1.09,6.9199c1.47,6.1,1.25,12.4301,1.26,18.67
		c0.03,5.5699-2.92,10.54-3.75,15.97c-3.33,20.65-7.08,41.24-10.72,61.84c-4.16,22.67-7.1901,45.55-11.15,68.24
		c4.45,8.76,10.1,16.9701,15.12,25.4701c4.0701,1.38,7.79,5.52,6.3,10.0599c0.88,2.3101,2.47,5.52-0.4501,7.0801
		c6.8301,35.1499,14.3101,70.1899,21.38,105.2999c2.73,12.76,4.8,25.6801,8.26,38.28c1.21,9.3199,3.3101,18.5,5.3101,27.6799
		c6.8999,22.41,14.0599,44.7301,21.0499,67.1201c2.41,8.23,5.67,16.2699,7.04,24.7899c1.6801,8.89,3.36,17.78,5.14,26.66
		c1.13,5.26,0.1899,10.76-0.98,15.9299c-3.0801,4.4801-7.01,8.51-11.8501,11.0901c-7.6499,4.2899-15.7,8.71-24.7,8.9199
		c2.12,4.15,4.23,8.3201,6.23,12.54c1.55,3.74,5.8,5.03,8.97,7.08c2,1.3601,5.9901,0.79,6.27,3.91
		c-1.0599,4.09-3.1499,8.14-6.64,10.6801c-12.3099,8.87-26.85,13.7-40.1899,20.6799c-6.5,1.41-12.3101,4.66-18.25,7.51
		c2.62,10.0701,5.51,20.0801,8.05,30.1801c1.08,4.08,2.2699,8.33,5.0599,11.64c2.4,2.98,5.72,5.5699,6.58,9.5199
		c0.92,4.9,0.0801,9.9801,1.25,14.8701c1.89,8.4299,4.38,17.1599,10.27,23.75c4.41,4.6599,5.0901,11.2799,6.16,17.3099
		c1.58,10.87,3.21,21.77,6.12,32.38c2.1,7.64,5.6901,14.77,7.79,22.41c2.76,9.7799,3.58,19.95,5.2,29.95
		c2.66,17.1,5.87,34.1,8.86,51.14c3.8101-0.61,7.5601-2,11.47-1.72c2.66,0.89,2.7301,4.1799,3.16,6.51
		c1.4301,15.0499,3.26,30.08,5.5801,45.0299c1.59,9.87,6.6499,18.6101,11.1,27.39c1.2899,2.9701,3.21,6.2001,2.3099,9.5601
		c-1.09,1.1799-2.7899,1.45-4.1899,2.13c-4.37,4.11-10.55,4.96-15.79,7.49c-0.3099,4.66,0.97,9.38,1.22,14.09
		c1.4701,18.23,3.52,36.3999,5.7001,54.5701c1.28,10.1099,1.13,20.3899,3.14,30.4199c1.08,6.1201,1.3999,12.47,3.86,18.27
		c4.09,10.3501,6.47,21.27,10.2999,31.71c7.24,21.25,11.8201,43.3601,14.25,65.6702c1.76,11.5,7.54,21.7798,11.66,32.5298
		c6.03,14.99,11.16,30.4001,14.37,46.26c2.62,12.1702,2.84,24.8,1.2001,37.1301c-1.26,13.1199-2.5801,26.23-3.64,39.3699
		c-0.3301,4.51-1.17,9.03-0.9,13.5901c0.97,13.97,0.4,27.99,0.8099,41.99c-0.01,10.6599,0.4501,21.3401-0.25,32
		c-1.1699,18.6699-1.84,37.3801-3.76,56.01c-1.3999,8,5.65,14.21,5.77,22.03c0.25,11.0601,4.9601,21.24,7.36,31.8799
		c1.5,4.98,5.03,8.99,7.16,13.7102c3.49,7.49,8.92,13.7898,14.08,20.1699c5.3101,6.5601,11.67,12.1399,17.5601,18.1599
		c5.36,5.3201,10.39,11.1201,16.77,15.29c8.97,5.8999,18.9,10.1899,27.6799,16.4199c6.7301,4.53,12.5601,10.29,19.52,14.5
		c7.25,4.5,13.99,10.0801,18.79,17.22c6.85,8.8901,12.71,19.1501,13.9299,30.5c0.6801,4.29-0.75,8.9102,1.2201,12.9802
		c2.88,6.6299,2.9399,14.3098,1.12,21.24c-0.8401,3.2798-3.03,6.0598-5.85,7.9099c-6.27,4.29-13.16,7.55-19.7301,11.3501
		c-6.73,4.0898-14.7899,4.7898-22.45,5.3899c-12.49,0.1799-25.2-0.01-37.28-3.51c-8.64-2.3699-16.6-6.5701-24.65-10.3899
		c-13.0099-6.1902-23.33-16.5801-32.87-27.1201c-6.0299-6.73-11.3899-14.04-17.6399-20.5701
		c-6.5601-7.0498-13.7201-13.51-21.1801-19.5798c-6.08-4.9001-10.9-11.0701-15.76-17.1101c-4.41-0.47-8.2-2.8401-11.53-5.5901
		c-7.1-5.8098-15.1599-11.0898-19.4399-19.49c-2.3301-3.7998-1.4401-8.5398-3.4601-12.4199c-2.3099-4.98-3.83-10.53-3.0699-16.03
		c0.3-2.3398,0.27-4.6899,0.01-6.98c-1.42-14.01-0.0601-28.1299,2.54-41.9099c1.21-4.1602-0.8301-8.1201-2.17-11.9399
		c-2.4301-5.8301-1.73-12.4302-4.3101-18.2202c-4.2-10.0498-9.0199-19.8398-12.8999-30.0298c-3.5701-8.1001-5.3401-16.79-7.65-25.28
		c-2.71-11.49-5.1801-23.03-7.9301-34.5c-2.4299-7.5701-4.6799-15.1902-7.22-22.7002c-7.41-19.7598-21.2-36.2598-29.3199-55.6799
		c-4.1901-8.5898-8.1901-17.3398-10.63-26.6099c-3.88-14.55-5.27-29.6101-8.49-44.3c-2.37-7.9001-4.3201-15.9102-6.8401-23.75
		c-1.25-3.95-1.89-8.05-2.39-12.1401c-0.6899-6.8999-4.7699-12.73-7.88-18.72c-6.96-11.9099-11.58-24.96-16.1-37.9399
		c-3.38-12.27-7.1799-24.4399-11.7999-36.3101c-5.4301-14.0698-9.92-28.47-14.12-42.9399
		c-9.7301-30.3201-20.4-60.3899-33.65-89.3699c-7.74,0.0398-15.6,0.1499-23.16-1.7402c-3.45-2.3398-3.43-7.2-4.25-10.8799
		c-1.66-12.5699-3.37-25.24-7.66-37.24c-5.83-16.33-11.95-32.5601-17.78-48.88c-0.64-2.35-1.91-5-0.86-7.36
		c3.1-2.73,7.44-3.22,11.32-4.1c-4.77-17.29-10.54-34.26-16.27-51.24c-3.62-11.2201-6.46-22.7401-11.29-33.53
		c-3.51-8.4-4.22-17.6801-7.83-26.03c-3.03-5.5-5.98-11.0699-8.02-17.02c-2.64-7.34-5.4-14.7899-5.9-22.64
		c-0.33-3.99-0.66-8.1899-2.86-11.6499c-2.65-4.25-6.56-7.51-10.33-10.7201c-2.22,2.35-5.06,4.4601-5.77,7.8101
		c-1.37,5.21-3.55,10.1899-6.62,14.64c-3.73,5.26-4.97,11.7-7.23,17.64c-4.87,12.98-8.86,26.2599-13.52,39.3199
		c4.26,7.5601,8.54,16.3199,5.84,25.2c-3.02,9.37-8.08,17.9301-12.08,26.92c-3.66,8.38-8.75,16.51-9.36,25.86
		c-0.58,7.24-1.61,14.74-5.52,21.04c-6.18,10.23-15.47,18.36-25.8,24.25c-4.63,2.6899-9.84,4.36-15.2,4.73
		c-7.28,14.61-14.52,29.27-20.6,44.45c-4.19,10.3-9.42,20.1401-13.56,30.47c-3.39,7.8501-6.65,15.78-10.81,23.27
		c-1,1.75-1.04,3.8-1.2,5.79c-0.73,13-3.27,25.8-5.51,38.6001c-1.04,7.0798-2.67,14.0598-4.89,20.8699
		c-4.58,13.6401-6.54,27.95-9.94,41.9001c-3.99,18.9399-11.31,37.2-21.79,53.49c-12.73,19.0698-25.94,38.21-33.91,59.8899
		c-4.31,12.5701-10.5,24.3601-15.44,36.6799c-7.72,16.3401-17.5,31.6501-24.85,48.1702c-2.42,5.1599-4.95,10.27-7.67,15.29
		c-2.88,6.6799-1.03,14.0798,0.11,20.95c2.16,11.23,3.12,22.77,1.85,34.1799c-0.65,3.97,0.98,7.9199,0.31,11.9199
		c-0.27,3.6001-2.04,6.8-3.1899,10.1702c-0.65,3.6199,0.05,7.6199-2,10.9199c-4.8101,8.75-13.89,13.6499-21.78,19.21
		c-4.57,2.99-9.52,6.8101-15.35,5.6799c-5.14,5.1702-9.9901,10.7002-15.98,14.9402c-10.22,7.3298-20.3,14.9199-29.28,23.75
		c-13.93,13.8398-27.72,28.71-45.69,37.3098c-14.16,5.8701-28.43,12.3801-43.89,13.74c-11.98,0.9302-24.16,1.74-36.05-0.49
		c-6.87-1.1299-12.52-5.5-18.61-8.5398c-3.97-2.4802-9-4.3801-11.03-8.9102c-1.93-6.98-0.46-14.54,2.6-20.97
		c0.46-4.5701-0.15-9.26,1.16-13.71c1.73-7.3301,5.84-13.75,9.76-20.05c2.89-4.7,7.19-8.24,10.77-12.3599
		c8.59-9.25,20.75-13.6802,30.31-21.7102c10.11-8.0798,22.41-12.6399,33-19.97c8.83-6.0698,15.14-14.8799,22.5-22.5
		C522.65,2454.29,530.74,2446,537.71,2436.78c6.38-7.9299,9.0099-17.96,13.08-27.1201c6.27-16.45,13.73-32.8799,15.07-50.6599
		c1.45-19.6599,3.57-39.27,4.21-58.97c0.18-21.99,0.61-44.02,3.04-65.8801c1.59-13.73,4.72-27.2898,4.99-41.1499
		c0.27-15.1201,1.91-30.3899,7.16-44.6599c4.55-13.3101,8.92-26.6802,12.9-40.1602c1.52-7.6099,3.47-15.49,1.72-23.22
		c-2.31-13.3301-0.44-26.9399,2.92-39.9099c2.66-10.15,7.91-19.3501,11.01-29.3401c2.34-7,3.09-14.39,3.05-21.73
		c0.59-12.8099,0.27-25.62,0.74-38.4199c-6.5099-4.77-12.43-10.54-16.45-17.5901c-6.05-10.28-7.26-23.11-3.76-34.45
		c2.42-7.85,6.86-14.89,11.85-21.34c1.58-2.15,3.52-4.2401,3.92-6.9701c1.7401-9.6799,2.66-19.48,3.91-29.21
		c1.41-10.51,6.59-20.38,14.22-27.71c2.86-3.16,6.81-5.88,7.7-10.3201c6.86-23.9399,11.85-48.5,21.2-71.6599
		c4.49-10.8,6.67-22.5,12.28-32.8201c1.9-3.7,5.07-6.8199,5.8-11.04c1.02-5.45,2.62-10.7899,5.12-15.75
		c-5.32-9.1899-12.59-17.08-17.93-26.26c-3.06-5.1399-5.8-11.2999-4.02-17.36c1.27-5.24,5.42-8.9099,8.88-12.75
		c2.45-2.59,3.44-6.0699,4.74-9.2799c1.09-3.3301,4.71-4.6101,6.67-7.3c2.16-3.02,5.69-5.6801,5.4-9.77
		c0.27-6.61-0.15-14,4.24-19.48c2.7-3.86,7.95-4.45,10.7-8.26c8.78-10.23,18.24-20.05,29.46-27.62c3.92-2.38,5.3-7.05,7.58-10.76
		c-2.44,2.73-4.05,6.1-6.58,8.76c-1.13,1.46-3.08,1.47-4.45,0.39c-0.13-2.11,1.43-3.74,2.34-5.48c2.93-4.54,4.04-9.91,6.55-14.64
		c0.65-1.41,2.13-2.03,3.32-2.88c-0.44-3.6-0.32-7.65-2.93-10.5c-6.34-7.87-11.13-16.99-13.94-26.6901c-3.42-11.2-1.5-23-1.64-34.49
		c-2.97-4.5199-1.3-9.9099,1.49-14.0299c-1.16-2.7001,0.96-4.39,3.35-4.88c0.88-2.67,1.38-5.52,0.29-8.2001
		c-1.34-3.4299,0.36-6.88,1.5-10.08c-0.52-1.17-0.96-2.3201-1.3-3.51c0.63-0.26,1.88-0.78,2.51-1.04
		c-0.02-1.37-0.03-2.73-0.02-4.0599c-1.58-2.66-4.3199-5.2101-3.67-8.5801c0.1-3.08,2.98-6.25,0.63-9.09
		c1.82-3.42,4.55-6.54,3.75-10.71c-1.32,0.09-2.6,0.33-3.91,0.34c-1.09-1.09-1.88-2.4399-2.77-3.65
		c-0.49-5.6699,4.31-10.2999,3.1-15.9399c-0.23-2.11,1.01-4,1.51-5.97c0.4-0.28,1.2-0.8501,1.6-1.13
		c-0.36-3.2301-0.75-6.4301-1.16-9.63c-1.29-0.74-2.56-1.4501-3.85-2.14c-2.64-3.14-5.64-6.5901-4.63-11.05
		c0.9-3.88-0.41-7.47-1.85-11c0.38-0.52,1.16-1.5699,1.55-2.09c1.47-3.98,0.93-8.24-0.85-12.02c-1.34-1.9-3.63-2.92-4.81-4.9399
		c-1.25-2.1101-2.58-4.15-3.83-6.2301c-1.59-2.51-1.29-5.6-1.8799-8.37c-1-3.13-3.61-5.86-3.19-9.3199
		c0.34-2.66,0.09-5.8101,2.5699-7.52c-0.7-2.28-1.37-4.61-2.7599-6.5699c-1.55-2.9601-5.9901-2.52-7.21-5.75
		c-2.9-5.8301-0.6-12.64-2.75-18.63c-1.81-3.9501-3.74-7.8401-5.85-11.64c-3.41-2.0701-5.19-5.77-7.32-8.97
		c-1.81-2.79-4.13-5.26-5.57-8.27c-1.74-3.5901-0.44-7.9701-2.67-11.37c-2.3101-3.77-4.11-7.87-6.69-11.4601
		c-2.48-1.7799-5.76-2.7799-7.22-5.6699c-1.66-2.4401-2-5.42-1.74-8.28c0.23-1.23,0.08-2.4-0.43-3.5
		c-3.91-8.51-6.4-17.9-5.92-27.3199c0.58-3.3-2.17-5.67-3.7401-8.2201c-13.0099-1.64-25.92-3.9199-38.94-5.52
		c-21.38-2.5599-42.41-8.9199-64.12-8.0399c-6.72,0.09-13.22,2.39-19.96,2.02c-6.21-0.2001-12.23-1.8401-18.14-3.6101
		c-6.81,2.0701-13.93,2.91-20.99,3.55c-6.46,0.5601-12.83-2.3-17.22-6.95c-3.01-3.5601-8.02-3.8501-11.71-6.4301
		c-3.14,1.3201-6.42,2.74-9.91,2.49c-5.54-0.38-10.75-2.48-16.16-3.5499c-3.3-0.3601-6.65,0.1799-9.94-0.37
		c-5.39-0.9-10.47-2.9801-15.57-4.8501c-2.96-1.34-6.23-0.46-9.35-0.61c-9.04-0.38-18.92,0.03-26.64-5.51
		c-2.8-2.09-6.36-0.97-9.46-0.39c-3.97,0.9301-8.11-0.3199-12.04,0.8401c-5.83,1.7-11.9,0.37-17.74-0.53
		c-6.1-1.0601-12.5-1.58-18.03-4.62c-5.27-2.77-9.35-7.1801-13.56-11.29c-4.6-2.7899-10.24-2.98-15.46-3.64
		c-10.75-1.47-20.43-6.84-29.24-12.8999c-5.81-4.0701-11.57-8.25-16.77-13.0801c-11.1-10.9399-18.31-26.13-18.03-41.88
		c-0.69-10.9,5.08-20.91,12.23-28.68c5.78-6.25,11.44-12.6,16.95-19.08c8.44-9.87,20.02-17.41,32.96-19.54
		c11.25-1.48,22.65,0.02,33.71,2.14c8.18,1.61,15.81,5.1,22.95,9.32c6.54,1.63,13.44,1.09,20.13,0.91
		c35.52-2.24,70.48-9.99,106.07-11.5c10.34-0.61,20.68-1.33,31.03-1.83c11.57-0.4,23.25-2.29,34-6.67c2.46-2.2,3.52-5.68,6.12-7.82
		c3.08-3.1,8.03-2.0699,11.48-4.49c3.44-2.32,6.17-5.9,10.32-7.02c3.79-0.75,7.37,1.31,11.09,1.67c4.07-0.32,7.7-2.7,11.82-2.82
		c9.87-0.28,19.76-0.36,29.63,0.04c6.36,1.39,12.91,1.26,19.32,2.41c3.46-1.6,7.41-1.09,11.13-1.39c4.35,0.4,8.6,1.96,13.04,1.41
		c2.88,0.27,5.07-2.5601,7.98-1.84c4.03,0.74,8.05-0.3,12.08-0.56c4.66,0.28,9.12,2.01,13.81,2.21
		c9.13,0.39,18.57,1.33,27.45-1.3701c0.84,0.54,1.68,1.09,2.53,1.65c2.14-4.25,5.85-8.81,11.09-8.55
		c8.05,0.09,16.09-0.27,24.11-0.92c2.3-0.17,3.94-2.01,6-2.83c4.06-1.74,8.56-1.67,12.9-1.99c3.36-0.11,6.89-0.85,10.08,0.67
		c3.51-0.73,8.91,1.84,10.55-2.53c-0.4-6.3799-1.72-12.73-3.34-18.91c-1.3,0.68-2.51,1.53-3.6,2.52c-0.15,1.35-0.64,2.6-1.79,3.42
		c-0.78,1.4-1.61,2.89-3.12,3.62c-5.72,3.09-12.47,4.26-18.88,3.19c7.5,0.03,16.29-0.15,21.51-6.45c-0.89,0-2.67,0-3.57-0.01
		c1.05-0.39,2.1-0.78,3.17-1.15c1.36-2.68,3.11-5.16,5.48-7.04c0.31-2.62,0.2-5.25-0.19-7.84c-1.56,0.52-3.1,1.08-4.65,1.61
		c-0.07,1.02-0.23,3.06-0.3,4.08c1.2599-1,2.55-1.98,3.81-2.99c-0.25,0.46-0.73,1.39-0.97,1.85c-1.23,0.57-2.44,1.16-3.64,1.78
		c0.01,1.54,0.03,3.09,0.05,4.64c-1.77,1.68-3.48,3.43-5.13,5.23c-3.41-0.56-6.69,0.28-9.6,2.04c-1.46-0.88-3.08-1.46-4.72-1.82
		c2.48-0.16,4.89-0.8,7-2.14c-3.26-0.13-6.5,0-9.75-0.11c2.62-0.85,5.37-1.11,8.13-1.08c0.09-0.75,0.28-2.2599,0.38-3.02
		c-2.61,0.01-5.25,0.03-7.7401-0.81c-1.75-0.01-3.47,0.04-5.19,0.12c1.98-0.52,4.28-0.48,5.8101-2.06c-1.96-0.26-3.91-0.49-5.85-0.7
		c3.81-0.3,7.72-0.12,11.39-1.39c5.96-3.22,6.65-10.71,6.41-16.76c-5.22,3.35-9.11,8.43-14.72,11.21
		c4.92-3.73,8.78-8.52,13.08-12.89c-0.57,0.13-1.72,0.39-2.3,0.52c-0.37,0.49-1.11,1.48-1.48,1.98c-0.88-0.03-1.75-0.05-2.61-0.06
		c-1.63,1.5-3.36,2.95-5.52,3.61c0.18-0.9,0.55-2.7,0.73-3.6c-0.54-0.06-1.62-0.17-2.17-0.22c1.9-1.27,4.27-2.31,5.22-4.53
		c1.22-3.04,2.5099-6.04,4.03-8.94c-1.78,1.44-3.7,2.75-6.05,2.86c-1.41,0.44-2.86,0.74-4.3,1.02l-0.08-1.96
		c-1.58,1.61-3.53,2.72-5.7,3.28c0.54-0.87,1.09-1.72,1.65-2.56c-0.02-0.74-0.08-2.22-0.1-2.97c3.77-2.18,5.95-5.93,7.3-9.95
		c-3.27,2.53-6.22,5.49-9.78,7.6299c0.77-0.77,2.3-2.33,3.07-3.11c-2.82,0.16-5.56,0.82-8.19,1.81c3.16-1.46,5.81-3.74,7.71-6.65
		c0.08-1,0.16-1.99,0.26-2.96c-1.85,0.15-3.69,0.32-5.52,0.51c3.56-3.17,6.82-7.04,7.68-11.88c-3.52,1.69-5.88,5.06-9.48,6.59
		c-0.07-1.7-0.13-3.39-0.17-5.0601c0.5-0.12,1.5-0.36,2-0.47c-0.59-0.14-1.77-0.43-2.36-0.57c0.58-1.31,1.15-2.63,1.72-3.93
		c-1.06,1.12-2.34,2.19-2.36,3.93l-2.2599,0.28c0.37-3.37,2.58-6.17,2.8799-9.56c-0.68,0.13-2.04,0.38-2.72,0.5099
		c0.32-3.09,1.6-5.93,3.19-8.55c0.08-1.11,0.16-2.22,0.26-3.31c-0.89,0.53-1.76,1.07-2.62,1.62c-1.72,0.09-3.45,0.19-5.03,0.9
		c-1.07,0.12-2.13,0.24-3.19,0.36c1.59-1.2,3.15-2.43,4.72-3.65c-0.08-0.75-0.14-1.5-0.19-2.2401c0.48-0.1,1.42-0.3,1.9-0.41
		c4.03-4.35,8.65-8.54,10.89-14.16c-0.79,0.3-2.38,0.88-3.17,1.1801c2.07-2.45,3.92-5.08,5.23-8.02c-1.1,0.05-2.19,0.11-3.27,0.2
		c-3.6299,1.18-7.55,0.95-11.2,2.16c1.29-0.84,2.6-1.65,3.93-2.45c-0.01-0.54-0.02-1.64-0.02-2.18c4.85-2.14,9.13-6.56,10.18-11.89
		c-1.13,0.26-2.26,0.53-3.38,0.8101c0.04-0.51,0.11-1.55,0.15-2.0601c-1.14,0.45-2.27,0.91-3.38,1.38c-3.1-0.16-6.19-0.12-9.28-0.21
		c2.75-0.54,5.55-0.72,8.36-0.71c2.16-1.93,4.24-3.95,6.15-6.12c0.13-2,0.54-3.96,1.17-5.84c-0.67-0.06-2-0.1899-2.66-0.25
		c4.94-6.46,4.78-15.29,5.66-23.06c1.27-2.98,2.68-5.95,3.0699-9.2c0.6-5.37,3.11-10.2401,4.07-15.52
		c-0.65,0.63-1.96,1.88-2.61,2.51c0.21-1.53,0.43-3.06,0.66-4.57c-0.41,0.05-1.2401,0.14-1.66,0.19c1.8-1.26,1.28-3.17,0.81-4.94
		c-0.11,1.27-0.19,2.56-0.24,3.85l-1.3-0.11c0.03-0.61,0.09-1.81,0.12-2.42c-1.51-1.39-2.38-3.25-3.36-4.99
		c-1.62-2.98-3.9301-5.58-5-8.84c1.14-0.94,2.23-1.94,3.19-3.05c-2.81,0.66-5.7401,2.25-8.56,0.72c0.86-0.09,2.59-0.28,3.45-0.38
		c2.91-2.64,6.4-4.77,8.36-8.31c-3.86,2.02-8.26,3.3-12.51,1.77c-2.32-0.18-3.9-1.66-5.13-3.48c2.1,2.76,5.51,2.48,8.63,2.42
		c-0.22-0.6-0.65-1.8-0.87-2.4l2.46,1.1201c-0.73,0.66-1.42,1.35-2.07,2.0699c6.19,0.79,10.45-4.12,14.57-7.83
		c3.88-3.57,5.59-8.7,8.26-13.11c-0.45-0.2599-1.36-0.78-1.82-1.05c-2.81,1.8-5.31,4.01-8.09,5.85c-0.92,0.06-1.84,0.13-2.74,0.21
		c0.0699-1.05,0.15-2.1,0.24-3.14c0.47,0.03,1.4,0.08,1.86,0.1c-0.66-2.6,1.97-3.42,3.61-4.62c-0.75-0.94-1.48-1.87-2.21-2.79
		c0.7599,0.6,1.55,1.17,2.37,1.73c2.38-1.01,3.78-3.39,5.62-5.07c-4.26-2.58-10.48-2.23-13.82,1.73c-1.48-0.27-2.96-0.6-4.41-0.91
		c0.72-0.06,2.15-0.16,2.87-0.21c6.15-6.51,14.9-9.37,22.15-14.31c-4.72,1.07-9.24,2.81-13.7,4.64c3.4-2.95,8.16-3.4,11.68-6.18
		c2.25-0.18,4.96,0.42,6.6-1.55c5.54-5.48,9.67-12.28,15.64-17.34c9.48-7.83,20.5099-13.57,31.9-18.04
		c4.81-5.67,11.98-8.2,18.54-11.25c3.45-1.54,7.26-2.06,11.01-2.07c-4.16,1.07-8.75,1.14-12.39,3.69c-0.9,0.33-1.79,0.67-2.67,1.01
		c-3.64,1.22-6.81,3.42-10.27,5.02c-0.05,0.7-0.16,2.09-0.21,2.79c2.97-1.3,6.21-1.85,9.22-3.04c4.73-2.66,9.08-6.23,14.4901-7.45
		c6.38-1.62,13.24-2.6,19.72-1.1c0.99-0.53,1.98-1.06,2.98-1.59c-0.54,0.57-1.62,1.71-2.17,2.28c3.01,0.56,5.99,1.19,9,1.79
		c-0.72-0.7599-2.17-2.29-2.89-3.06c2.48,2.26,5.8,3.6,7.87,6.29c3.77,1.38,7.65,2.64,11.6201,1.27c0.02,0.39,0.06,1.18,0.08,1.57
		c5.11-0.02,10.56-1.26,15.37,1.06c3.29,1.17,6.18,3.15,9.11,5c1.02,1.64,2.03,3.26,3.15,4.86c0.61-1.08,0.16-2.22-0.25-3.26
		c0.43-0.05,1.27-0.16,1.7-0.21c0.14,1.44,0.28,2.9,0.48,4.35c3.55,2.14,8.18,3.55,9.95,7.66c0.92,0.15,1.86,0.3,2.81,0.46
		c2.04,1.22,4.29,2.34,6.74,1.55c-0.14,0.28-0.42,0.84-0.56,1.12c5.25,1.53,10.02,5.03,12.99,9.65c0.73,1.14,1.31,2.6801,2.87,2.9
		c4.84,1.31,9.9901,2.65,13.64,6.33c5.98,6.04,9.74,13.79,14.36,20.85c2.47,0.29,5.13,0.96,6.4901,3.28
		c0.84,1.61,2.37,2.24,4.14,2.2599c6.31,5.76,10.86,13.16,15.53,20.25c2.45,4.97,6.54,9.15,7.7,14.71c0.66-0.76,1.3301-1.52,2-2.27
		c0.7301,0.78,1.5,1.55,2.27,2.33c0.23,0.5,0.6901,1.52,0.92,2.03c-1.0801-0.58-2.63-2.46-3.5601-0.7c-0.5,3.28,0.38,6.57,1.64,9.58
		c0.75,3.33,2.72,6.16,4.13,9.22c0.4501,1.24,1.77,1.57,2.8101,2.21c0.73,4.54,1.46,9.16,3.51,13.34
		c1.6499,3.4,2.24,7.18,3.8099,10.62c0.22,2.58,0.3,5.17,0.27,7.77c-0.66-1.97-1.25-3.95-2.04-5.85c0.03-0.36,0.0801-1.07,0.1-1.43
		l-1.2699,0.03c0.01-0.7,0.0399-2.11,0.0499-2.81c-1.84-2.22-3.3199-4.75-3.53-7.69c-1.34,2.52,0.2101,4.89,1.2401,7.16
		c0.2,4.35,3.2799,7.6801,4.7999,11.61c0.49-0.16,1.47-0.46,1.96-0.62c0.7001,4.02,1.6801,8.99,5.9601,10.65
		c-0.38,0.22-1.14,0.66-1.52,0.88c2.12,4.82,3.3199,10.52,0.72,15.42c-0.4399,1.3701-1.62,4.95,0.8,4.94
		c0.21-0.72,0.63-2.16,0.84-2.88c0.21-0.0099,0.64-0.03,0.85-0.04c-0.14,1.78-0.2799,3.56-0.4299,5.36
		c0.5699-0.05,1.6899-0.16,2.25-0.21c-0.15,2.66,0.15,5.83,3.24,6.61c-0.04,0.19-0.1,0.57-0.13,0.75c-0.41-0.1-1.24-0.31-1.65-0.42
		c-0.45-0.5-1.35-1.5-1.79-2.01c-1.49,1.7-3.88,1.61-3.95-0.97c1.2,0.18,2.41,0.37,3.64,0.56c-0.7001-1.5-0.8201-3.54-2.5701-4.19
		c-1.35-0.36-2.73-0.08-4.0599,0.07c0.42-3.52,0.42-7.08,0.34-10.61c-0.04-0.95-0.39-1.77-1.0699-2.45
		c-0.11,1.85-0.12,3.71-0.1,5.58c-0.4401,1.19-0.8601,2.39-1.25,3.6c-0.3501-0.08-1.0601-0.25-1.41-0.34
		c0.1699-3.42,0.0399-6.84-0.25-10.24c-2.16-0.34-3.67,1.6-3.9601,3.53c-0.0499,2.48,0.8,4.88,1.3201,7.3
		c0.4299,0.34,1.27,1.04,1.6899,1.39c-0.0199,1.89,0,3.79,0.0601,5.7c2.1899,0.27,4.33,0.83,6.47,1.4
		c-0.02,0.25-0.0599,0.74-0.08,0.99c-0.9401-0.04-2.8101-0.11-3.74-0.15c0.46,4.32,5.72,4.9,8.33,7.67
		c-0.04-1.08-0.11-3.23-0.14-4.31c0.99,2.6,2.23,5.89,5.76,5.21c-1.59,0.08-3.21,0.16-4.78,0.27c0.15,0.77,0.4401,2.3,0.5901,3.07
		c-0.3201-4.83-6.1001-4.27-9.15-6.35c1.0499,2.62,2.49,5.07,3.96,7.48c1.97,0.07,3.98,0.2401,5.87,0.89
		c-4.09,0.36-8.1799,0.01-12.27-0.1c0.01,0.97,0.02,2.9,0.03,3.86c-0.87-0.82-1.74-1.69-2.54-2.53
		c-1.4099-0.02-2.8199-0.02-4.2,0.06c0.6901,0.49,2.09,1.47,2.79,1.95c0.74,2.12,2.2799,3.76,3.7799,5.39
		c-1.8999-0.86-3.5299-2.17-4.95-3.64c-2.1,0.04-4.2,0.13-6.29,0.22c-1.1799,0.59-2.36,1.17-3.5299,1.74
		c2.95-0.26,5.13,1.73,7.48,3.13c2.02,0.46,4.12,0.16,6.1899,0.22c-2.23,0.6-4.58,1.35-6.89,0.89
		c-2.1599-0.69-4.25-1.57-6.3999-2.22c-1.02-0.97-1.3501-3.58-3.14-2.92c-1.1901,0.79-1.1801,2.2-1.3,3.47
		c-0.9299-0.07-2.79-0.21-3.72-0.29c-0.09,0.8-0.27,2.4-0.36,3.2c-1.41-2.81-4.13-4.13-7.01-4.85c0.04-0.56,0.12-1.69,0.16-2.25
		c-3.93-3.66-7.99-7.16-11.84-10.89c-0.82,9.93-0.16,20.12-3.14,29.75c-3.8,13.05-9.57,25.43-13.56,38.43
		c-3.31,10.03-5.08,20.65-10.21,30c3.53,0.97,7.06,1.95,10.63,2.79c0.87-0.83,1.78-1.61,2.73-2.34c2.79,1.3,5.04,3.64,8.07,4.48
		c3.16,0.88,6.43,1.31,9.66,1.95c1.68-2.11,3.2-5.22,6.26-5.34c9.27,1.37,18.6899,0.14,27.96-0.7c3.37,0.36,4.39,4.03,5.62,6.61
		c5.64-0.44,11.6,0.23,16.96-1.92c5.15-3.05,10.2201-6.81,16.37-7.45c5.8501-0.86,11.1801,2.64,17,2.47
		c4.8501-0.17,9.54,1.24,13.9501,3.16c3.6799-0.74,7.39-1.69,11.1799-1.43c3.54,0.34,6.6001,2.42,10.03,3.24
		c3.63-0.48,7.22-1.68,10.9301-1.25c3.8099,0.19,7.23,2.07,10.9299,2.82c6.67,1.31,13.3501,2.6,20,4
		c4.49,0.85,7.5701,4.97,12.2001,5.36c7.61,1.04,14.5299,5.16,19.86,10.59c2.71,2.61,4.63,6.06,7.9299,8.04
		c6.65,4.17,12.54,9.53,17.3201,15.76c1.13,1.7,3.25,2.11,5.0599,2.8c16.6801,5.41,33.3501,11.1,48.99,19.14
		c9.03,4.8,18.5801,8.51,27.7101,13.14c6.46,3.38,13.26,6.08,20.0499,8.74c6.62,0.6,13.25-0.87,19.9-0.34
		c4.64,0.79,8.37-2.73,12.8101-3.34c9.26-1.61,19.34-1.14,27.6499,3.67c5.4401,3.66,12.17,4.28,18.4901,5.33
		c9.5599-1.6,19.2899-0.4901,28.5,2.42c25.0299-189.63,49.83-379.28,74.83-568.92c10.16-78.26,20.71-156.47,30.72-234.75
		c-2.48-0.42-3.79-3.1-2.51-5.27c1.3-0.66,2.7101-1,4.13-1.44c-0.41-1.07-0.7999-2.14-1.1699-3.2c-1.42-0.29-2.91-0.33-4.16-1.05
		c-0.79-1.32-0.71-2.9-0.91-4.36c1.4401-0.42,2.92-0.83,4.42-1.21c0.01-0.13,0.02-0.39,0.02-0.52c-1.51,0.04-3.0801,0.36-4.53-0.06
		c-0.66-1.16-0.9401-2.39-0.84-3.71c1.5299-1.77,4.1-1.86,6.2-2.61c1.0699-13.08,1.13-26.22,2.17-39.31
		c0.24-2.65,1.8199-4.9,2.87-7.29c4-8.05,7.74-16.23,11.76-24.27C1568.5699,79.3,1572.63,74.84,1576.29,70.11 M1551.8199,179.77
		c-35.1699,267.87-70.5,535.71-105.63,803.58c6.5,2.04,12.8101,4.97,18.04,9.4c2.72,2.3,6.05,4.37,9.78,4.09
		c5.98-0.31,11.98,0.62,17.65,2.53c6.7899,2.21,11.75,7.64,17.37,11.78c3.49,2.48,6.2,6.28,10.48,7.47
		c3.39,1.16,7.05,1.74,10.1799,3.59c2.89,2.22,5.76,4.66,7.4901,7.96c-0.8301,0.0199-2.5,0.0599-3.3401,0.08
		c0.3301,0.37,0.99,1.11,1.3201,1.48c3.5,0.61,6.9099,1.66,10.1699,3.09c2.7301,1.3401,5.8401,0.4401,8.75,0.37
		c1.01-0.7899,1.9701-2.7699,3.5-1.6899c2.5701,1.42,5.37,2.29,8.3301,2.55c1.0399-1.8101,1.47-4.9401,4.1799-4.74
		c3.9501,0.21,8.1,0.86,11.5701,2.8999c1.7999,1.8401,1.5,4.8301,2.08,7.24c3.41,1.2201,7,2,10.27,3.62
		c3.12,1.27,2.45,6.29,6,6.9601c9.36,2.0499,17.51-4.3101,26.0599-6.98c12.4-4.4401,25.5-6.8,38.63-7.6801
		c3.3101-16.47,4.9801-33.27,9.3201-49.53c1.11-1.9-1.5601-2.21-2.49-3.02c-0.1-2.09,0.86-3.62,2.85-4.29
		c-3.74-1-1.23-5.4,1.73-5.21c-1.04-0.28-2.0499-0.57-3.04-0.84c0.3301-1.6,0.4601-3.62,2.41-4.07
		c-1.9299-1.15-1.25-3.17-0.8199-4.96c1.4399,0.09,2.9099,0.18,4.39,0.3c0.9099-3.91,1.8199-7.82,2.7799-11.71
		c2.3201-9.6,2.92-19.47,4.53-29.18c0.98-7.28,1.0601-14.64,1.76-21.94c1.38-13.8-0.02-27.68-1.8099-41.37
		c-0.5701-12.53-1.6101-25.03-1.8701-37.57c-0.25-13.65-1.3799-27.28-1.08-40.94c-0.33-13.0099-0.1899-26.02-0.33-39.03
		c0.0399-5.87,1.27-11.64,1.74-17.47c2.2-13.49,3.86-27.06,6.22-40.53c0.3-2.05,1.36-3.86,2.3101-5.65
		c2.95-5.47,5.5-11.14,8.58-16.53c-1.92-1.75-3.99-3.35-5.72-5.27c-0.65-2.48,2.26-3.71,4.2799-3.72
		c-0.3899-2.05-1.1799-3.98-1.84-5.9301c0.9301-1.83,2.41-3.29,3.72-4.86c-9.0099-14.56-17.48-29.45-26.6699-43.91
		c-3.74,1.34-8.4,2.16-11.79-0.45c3.63-0.34,8.63,0.86,11.05-2.8c-1.8101,0.27-5.41,0.81-7.2201,1.08
		c1.3401-0.62,4-1.85,5.3401-2.47c-1.9-3.44-3.78-6.89-5.98-10.14c-4.4701-0.81-8.65-2.75-12.5701-4.94
		c-2.85-3.57-5-7.64-7.5699-11.4c-4.62-7.82-11.28-14.09-16.9-21.15c6.3,1.3,12.42,3.92,18.99,3.34c-1.27-2.4-2.3101-5.22-5.04-6.26
		c-7.76-3.91-14.14-9.88-20.0299-16.16c0.85-0.55,1.74-1.1,2.62-1.68c-4.0601-2.36-5.92-6.79-8.0801-10.71
		c-5.64-10.32-11.33-20.62-16.77-31.05c-4.49-8.85-9.98-17.13-14.9399-25.71c3.13,0.59,6.25,1.22,9.4,1.81
		c-3.42-3.18-7.75-5.33-10.87-8.78c-2.7001-6.04-4.6801-12.37-7.14-18.51c3.3099,2.65,6.58,5.37,9.88,8.04
		c6.51,0.74,12.95-0.59,19.25-2.1c-4.89-1.18-10.8301,0.31-14.61-3.72c-4.9801-4.7-11.53-7.88-15.17-13.84
		c-1.75-2.27-4.5-3.81-5.3101-6.7c-1.98-5.35-4.0199-10.68-5.97-16.03c4.76,4.51,10.01,9.3,16.66,10.48
		c12.12-0.5,24.21-1.68,36.33-2.21c-11.6499-1.71-23.51,0.96-35.09-1.42c-7.0699-2.2-12.63-7.16-18.33-11.62
		c-0.79-7.3-3.4701-14.56-2.0801-21.94c0.65-4.64,0.8101-9.4,2.41-13.86c1.54-4.6,2.23-9.46,4.08-13.96
		c2.3601-4.42,5.2201-8.55,7.62-12.96c2.1001,0.39,4.17,0.83,6.3101,1.25c-1.47-1.07-2.87-2.1-4.3101-3.14
		c2.3601-4.35,7.7401-2.38,11.0801-0.34c3.47,2.78,7.3199,5.49,9.23,9.67c1.84,3.99,5.6899,6.44,8.11,10.02
		c4.01,5.92,9.38,11.37,10.38,18.77c4.21,3.42,5.11,9.08,7.73,13.59c-0.6-7.55-0.21-15.23-2.1-22.62
		c-1.85-7.87-3.1801-15.87-5.1-23.72c-5.85-12.34-12.88-24.1-18.7001-36.46c-9.37-19.51-18.88-38.96-28.2799-58.46
		C1565.14,220.61,1559.24,199.92,1551.8199,179.77 M1655.92,347.12c7.1,0.97,14.09,2.56,21.1699,3.61
		c-7.48-2.88-15.34-4.34-23.13-6.06C1654.5601,345.48,1654.46,347.27,1655.92,347.12 M1660.86,376.92c6.27,1.78,12.62,3.4,19.12,4.2
		c0.86,0.16,1.74-0.07,2.61-0.26C1675.54,378.83,1668.2,376.99,1660.86,376.92 M1627.46,531.06c4.3501,2.01,8.89,3.82,13.7101,4.36
		c-3.74-2.59-8.5601-2.89-12.17-5.7C1628.46,530.16,1627.9399,530.6,1627.46,531.06 M1699.41,567.73c1.13,2.2,2.33,4.39,3.5499,6.56
		c1.26-0.02,2.5-0.06,3.8101-0.07C1706.1,570.62,1702.01,569.6,1699.41,567.73 M1704.34,576.27c0.1901,1.35,0.9,1.58,2.13,0.69
		C1706.24,575.6,1705.53,575.38,1704.34,576.27 M1706.26,580.2C1704.6,583.08,1709.58,580.48,1706.26,580.2 M770.38,626.23
		c-2.15,0.93-4.28,1.93-6.46,2.78c1.62,1.71,4.29,1.85,6.51,1.58c1.38-1.89,2.8-3.76,4.53-5.35c-1.2,0.23-2.4,0.46-3.58,0.69
		c-0.03-0.56-0.09-1.69-0.11-2.25C770.96,624.52,770.66,625.37,770.38,626.23 M758.08,663.8c2.91-3.26,5.7-6.69,7.69-10.6
		C762.44,656.02,759.2,659.49,758.08,663.8 M1713.61,705.97c-0.6899,11.67-1.4299,23.34-2.6,34.98
		c-1.4301,15.61-0.11,31.26,0.65,46.87c0.85,13.34,1.2999,26.7,2.02,40.04c0.25,4.19,1.3999,8.24,2.35,12.31
		c2.23,0.22,4.46,0.44,6.72,0.64c3.4399-3.22,8.04-5.46,10.1899-9.86c2.89-5.35,6.8-10.15,8.9401-15.89
		c1.66-4.39,3.27-8.8,4.95-13.19c1.91-4.76,1.62-9.98,2.54-14.96c0.77-4.36,0.0601-8.7599-0.73-13.06
		c-1.03-5.28-1.3201-10.67-2.65-15.89c-3.16-13.35-5.66-26.89-9.88-39.97c-2.04-6.17-3.86-12.4-5.74-18.61
		c-1.91-6.9-5.45-13.16-8.39-19.63C1718.76,688.31,1713.35,696.51,1713.61,705.97 M1036.33,708.77c0.4401,1.86,1.02,3.7,1.5701,5.55
		c0.5399,0.13,1.61,0.4,2.14,0.53C1039.3,712.54,1038.38,710.19,1036.33,708.77 M1036.22,725.66c-0.14,2.26,1.11,4.1,2.6901,5.59
		C1038.3199,729.24,1037.46,727.33,1036.22,725.66 M1044.1,734.26c0.1901,2.08,1.11,3.95,2.29,5.66c0.5699,1.95,1.58,3.72,2.7,5.43
		c0.1901,1.29,0.65,2.5,2.03,2.98c-0.45-1.74-1.3-3.31-2.3099-4.77C1047.71,740.24,1046.21,737.05,1044.1,734.26 M1051.46,749.45
		c-0.1599,2.72,0.02,5.46,0.5701,8.14C1053.89,755.01,1052.9,751.94,1051.46,749.45 M1033.33,784.9c-1.3999,2.09,0.37,3.91,1.38,5.7
		c1.79,0.05,3.5801,0.12,5.39,0.2c-0.47-1.31-0.9399-2.61-1.4299-3.89c-0.38-3.18-0.3401-6.4-0.13-9.58
		c-1.0601-0.45-2.13-0.89-3.1801-1.3c0.11,1.28,0.25,2.58,0.39,3.8799c-0.24-0.05-0.71-0.15-0.95-0.2
		c-0.5-1.68-1.3101-3.21-2.3501-4.58c0.01-1.6,0.03-3.19,0.04-4.77C1031.37,775.12,1031.17,780.38,1033.33,784.9 M1042.29,771.11
		c0.49,3.98-0.5,7.98,0.14,11.98c1.0699,0.71,2.1499,1.45,3.22,2.2c2.14,0.7401,4.3099,1.23,6.5699,1.52
		c-1.78-3.27-3.5499-6.53-4.9299-9.98c-1.78-0.74-1.9401-2.43-1.79-4.12C1044.02,772.97,1043.01,772.27,1042.29,771.11
		 M1046.99,775.48c1.12-0.83,1.08-1.63-0.11-2.4C1045.75,773.88,1045.79,774.68,1046.99,775.48 M1039.99,777.46
		c-0.73,1.2599-0.37,1.9,1.09,1.93C1041.78,778.1,1041.42,777.46,1039.99,777.46 M1040.95,785.28c1.54-0.11,0.5-2.6-0.5199-2.85
		C1038.84,782.52,1039.92,784.97,1040.95,785.28 M781.6,859.82c1.6801-0.48,3.34-1.05,5.01-1.61c-0.28-3.23,0.42-6.79-1.4-9.67
		c-0.41,2.73-0.4901,5.5-0.85,8.25c0.03-4.06-0.88-8.5,1.33-12.18l-1.13-0.18c0.11-2.29,0.34-4.68-0.95-6.68
		c-0.12-0.72-0.36-2.15-0.48-2.86C782.12,843.16,781.43,851.48,781.6,859.82 M773.39,852.78c-0.32,3.96-2.14,7.65-2.08,11.67
		c1.38-1.28,2.8-2.51,4.21-3.76c1.51-4.83,0.32-9.86-0.33-14.72C773.91,848.03,773.58,850.41,773.39,852.78 M764.89,865.76
		c-1.12,0.47-2.3,0.73-3.52,0.77c-0.09,0.52-0.27,1.5699-0.37,2.09c1.72-0.01,3.45-0.01,5.19-0.01c1.39-1.5,2.77-3,4.18-4.47
		C768.47,864.48,766.67,865.05,764.89,865.76 M1780.21,1078.66c2.29,4.6899,3.8401,9.88,7.76,13.58
		c-0.8199-5.39-1.4399-10.8099-1.2899-16.26C1784.54,1076.9301,1782.37,1077.8101,1780.21,1078.66 M1787.84,1115.89
		c-2.37,5.47-6.0399,10.99-4.22,17.23C1784.8101,1127.3199,1785.86,1121.49,1787.84,1115.89 M1405.78,1118.34
		c4.22,2.7201,9.13,6.17,14.4099,4.7201C1415.17,1122.04,1410.95,1118.61,1405.78,1118.34 M1427.21,1128.05
		c-8.7,64.36-16.9199,128.7899-25.49,193.1599c-24.14,183.6801-48.2899,367.3501-72.46,551.02c1.4-1.63,2.78-3.28,3.97-5.0599
		c6.97-11.55,15.23-22.2301,22.39-33.66c7.4401-12.15,17.59-22.24,27.11-32.74c11.89-13.4501,23.76-26.91,36.0801-39.96
		c5.7799-5.9301,12.0199-11.75,15.5599-19.38c3.87-8.15,9-15.77,11.54-24.5c6.12-18.64,12.65-37.14,18.2799-55.9401
		c5.3301-16.38,9.51-33.11,15.3401-49.3199c3.0399-8.14,4.3199-17.16,9.83-24.15c5.63-7.79,10.35-16.23,16.4301-23.6801
		c-1.62,1.1801-3.2001,2.4-4.75,3.65c-4.61-0.23-9.92-3.3199-10.1901-8.33c2.7101-9.5601,10.73-16.05,16.74-23.54
		c-0.85-0.88-1.6899-1.75-2.5-2.6c0.91-0.98,1.8401-1.9401,2.8-2.87c0.79,0.35,2.36,1.0599,3.15,1.41
		c0.63-0.75,1.2799-1.4701,1.96-2.1801c-0.95-1.17-3.67-2.08-2.49-3.89c1.3-2.46,4.02-0.88,5.8,0.11
		c0.8099-0.87,1.6399-1.73,2.49-2.5699c-1.16-1.1-2.3-2.1801-3.41-3.26c0.8099-0.9301,1.64-1.8301,2.51-2.71
		c1.39,0.6499,2.83,1.34,4.26,2.0399c4.76-4.2,8.5399-9.2999,12.4399-14.27c-0.36-2.08-0.75-4.1499-1.12-6.1799
		c2.97-3.1,5.84-6.41,9.51-8.7101c4.53-1.9199,9.73-1.72,14.23-3.6499c4.14-3.52,9.23-6.11,12.29-10.75
		c4.01-5.66,8.49-10.98,12.26-16.8101c4.3099-6.6699,9.9199-12.61,12.8099-20.11c4.79-11.1899,9.76-22.3,14.6001-33.47
		c1.5099-3.67,3.6599-7.12,4.4199-11.0601c4.25-20.1,8.1901-40.27,11.8101-60.5c1.52-12.58,3.5599-25.1,5.11-37.6799
		c1.4399-11.8401,5.85-23.1801,6.16-35.1801c-5.12-4.89-11.5901-7.74-18.0601-10.34c-0.85-2.2001-1.74-4.38-2.74-6.5
		c0.64-5.59,1.37-11.3,3.59-16.51c2.25-2.37,4.8401-5.05,8.37-5c6.3201-0.49,12.54-1.89,18.37-4.42
		c1.9601-5.5299,1.91-11.4199,1.41-17.1799c-1.83-0.64-3.88-0.8201-5.4-2.01c-0.45-1.55,0.22-3.02,0.63-4.46
		c-0.25-1.7101,0.14-3.3301,0.75-4.88c-0.02-2.8401,0.74-5.6101,0.52-8.4401c-0.1-2.14,2.6-1.8099,3.97-2.49
		c0.3401-4.79,0.61-9.59,0.6901-14.38c-6.88-1.9399-13.66-4.2-20.37-6.64c-8.9-3.23-17.27-7.77-26.36-10.46
		c-8.0901-2.5801-16.5801-3.46-24.9701-4.51c-7.89,4.35-17.1899,5.17-26.0299,4.76c-8.3-0.41-16.26-4.03-22.1101-9.92
		c-7.9399,1.76-16.0499,0.28-24-0.46c-9.22-0.23-19.21-0.9-27.0299-6.28c-6.36,0.0601-12.8101,0.89-19.0801-0.45
		c-3.7699-0.78-7.12-2.73-10.23-4.88C1441.48,1126.3101,1434.41,1127.86,1427.21,1128.05 M678.22,1197.3199
		c-0.4,1.3401,1.03,3.7001,2.52,3.4C681.2,1199.33,679.8,1196.8199,678.22,1197.3199 M698.98,1235.83
		c0.79,3.29,0.88,7.5701,4.04,9.5701C702.37,1241.97,701.2,1238.5601,698.98,1235.83 M706.7,1266.21c0.5,2.03,1.37,3.9601,2.5,5.75
		c0.25-1.3999,0.52-2.7799,0.79-4.14C708.89,1267.27,707.79,1266.72,706.7,1266.21 M711.57,1271.7c-1,3.55,0.29,7.05,1.41,10.4
		c0.39,0.15,1.17,0.4501,1.56,0.6C714.53,1278.8199,713.28,1275.12,711.57,1271.7 M1653.21,1315.92
		c-4.0499,27.85-8.7999,55.61-14.6599,83.14c-1.13,5.0099-1.5801,10.21-3.4601,15.0299c-4.23,9.25-8.4,18.54-12.1599,27.99
		c4.5399-5.24,8.0699-11.26,12.2599-16.7799c7.27-9.5901,13.3701-20.01,19.42-30.4c5.33-7.84,9.28-16.47,13.4-24.98
		c1.63-4.1001,1.89-8.5801,2.85-12.86c1.48-6.01,0.26-12.17-0.17-18.2301c-0.5-7.7799-2.8099-15.2699-4.2599-22.89
		c-1.4801-4.24-2.9401-9.2999-7.3-11.4099C1656.8199,1308.11,1653.64,1311.48,1653.21,1315.92 M722.33,1314.77
		c-0.47,2.8199-0.71,5.6699-0.73,8.5499C724.64,1321.36,724.12,1317.37,722.33,1314.77 M728.97,1351.95
		c-1.29,2.5801-2.37,5.28-2.97,8.12C728.2,1358.14,730.2,1354.9,728.97,1351.95 M729.72,1381.48c-1.5,3.01-2.7599,6.27-2.42,9.72
		c1-0.8199,2-1.6499,3.01-2.47C730.29,1386.29,730.49,1383.8101,729.72,1381.48 M728.05,1411.65c1.32-0.1,1.7-2.37,0.94-3.24
		C727.66,1408.49,727.24,1410.74,728.05,1411.65 M723.65,1430.33c-1.01,1.0701-1.7401,2.54-1.7401,4.0701
		c0.48,1.6899,1.94-0.62,2-1.35C724.09,1432.4301,725.18,1429.54,723.65,1430.33z"/>
</g>
</svg>
