<?xml version="1.0" encoding="utf-8"?>
<!DOCTYPE svg PUBLIC "-//W3C//DTD SVG 1.1//EN" "http://www.w3.org/Graphics/SVG/1.1/DTD/svg11.dtd">
<svg version="1.1" id="Layer_1" xmlns="http://www.w3.org/2000/svg" xmlns:xlink="http://www.w3.org/1999/xlink" x="0px" y="0px"
	 viewBox="-12 -21.08 624 1096.16" enable-background="new -12 -21.08 624 1096.16" xml:space="preserve">
<g id="_x23_ffffffff">
</g>
<g id="_x23_000000ff">
	<path style="opacity:1;fill:#eeeeee" d="M240.66,17.78c1.63-6.84,5.22-14.56,12.4-16.9c5.68-1.62,9.84,3.13,13.91,6.17
		c11,7.84,22.95,14.32,35.36,19.63c4.79,2.22,10.54,2.67,14.47,6.52c4.74,4.53,5.89,11.49,5.87,17.77
		c-0.2,9.34-0.95,18.65-1.67,27.96c4.25,2.17,7.86,6.04,8.19,11c1.22,8.36-4.38,16.34-11.89,19.57
		c-2.69,14.58-10.42,27.73-20.14,38.73c0.85,9.3,1.64,18.6,2.5,27.9c2.09-4.51,3.36-9.35,4.85-14.08c1.86,0.54,3.68,1.24,5.47,1.99
		c18.63,7.72,37.32,15.3,55.94,23.04c1.27,0.53,2.61,0.99,4.02,0.94c5.65,0.05,11.31,0,16.95-0.37
		c-14.53,7.43-26.63,18.71-37.88,30.36c-4.16,4.52-8.45,8.95-12.12,13.88c14.5-12.79,29.95-24.61,46.78-34.2
		c15.82-8.94,32.84-17.04,51.31-17.94c30.47-1.92,60.82,4.17,90.11,12.07c1.77,0.67,4.65,0.59,4.85,3.07
		c13.45,46.64,26.45,93.44,37.67,140.68c3.92,17.1,7.86,34.22,10.31,51.6c2.66,20.39-1.1,41.05-7.11,60.52
		c-6.83,21.57-16.74,42.12-29.02,61.1c-9.79,15-21.15,29.12-34.92,40.66c-35.46-7.46-69.64-22.53-97.81-45.52
		c-16.52-13.58-31.04-29.87-41.27-48.74c-6.87-12.45-10.38-26.34-13.85-40.02c-4-16.27-7.27-32.7-10.62-49.11
		c-0.29,21.86,2.55,43.75,7.85,64.95c4.43,17.61,11.32,34.62,20.71,50.17c0.89,16.14,1.4,32.38,3.79,48.41
		c2.81,18.96,6.75,38.36,16.71,55.0099c6.64,10.4901,10.8,22.35,13.64,34.38c6.16,26.87,6.6,54.74,4.61,82.13
		c-0.21,6.91-3.35,13.23-4.71,19.93c2.34-2.92,4.44-6.02,6.79-8.93c3.83,7.07,7.24,14.36,10.43,21.74
		c2.48,5.71,3.91,11.91,3.94,18.16c0.12,6.04-1.14,12-1.16,18.03c-0.1,5.95,2.36,11.48,3.69,17.18
		c7.36,28.39,14.37,56.92,19.62,85.79c2.2,13.61,2.92,27.41,5.09,41.03c1.92,12.51,3.33,25.15,5.93,37.52
		c12.79,15.55,25.96,30.8,39.07,46.09c8.44,9.64,16.74,19.42,25.64,28.66c-2.65,5.49-9.5,6.1499-14.89,6.3999
		c-12.25,0.12-24.57-2.3099-35.92-6.8999c-4.7-1.6101-7.2-6.4001-11.75-8.2501c-6.1-2.77-12.75-4.25-19.42-4.67
		c-5.75-0.34-11.3-3.69-13.8-8.95c-3.5-7.08-3.68-15.21-3.77-22.94c-0.04-9.69,0.69-19.37,0.46-29.05
		c-0.62-7.68-6.27-13.34-10.47-19.31c-2.22-2.74-1.64-6.38-1.64-9.64c0.29-18.6-3.55-37.56-13.07-53.69
		c-8.23-14.64-20.62-26.31-29.51-40.49c-10.02-16.28-12.23-36.05-11.45-54.8c0-7.48,1.36-15.5-2.24-22.42
		c-8-16.18-18.1-31.27-25.29-47.86c-12.35-33.13-31.43-63.21-45.06-95.78c-0.32-1.26-1.78-2.44-1.18-3.78
		c2.36-3.53,5.35-6.63,7.41-10.37c-4.9,1.86-9.37,4.65-14.21,6.64c-6.65-6.51-13.49-12.83-20.21-19.28
		c4.27,8.12,9.08,15.95,13.63,23.91c-3.64,6.57-6.1,13.7-8.77,20.69c-8.74,23.88-16.71,48.04-24.8,72.14
		c-6.83,20.7401-16.38,40.59-21.25,61.95c-2,7.47-1.79,15.23-2.43,22.88c-2.52,21.96-7.2,43.61-12.32,65.09
		c-2.58,9.81-4.74,19.85-9.18,29.03c-3.35,7.88-5.51,16.19-7.64,24.46c-2.77,11.42-5.17,22.97-6.14,34.69
		c-0.48,5.31,0.07,10.67-0.66,15.97c-1.15,8.65-3.9,17.03-7.56,24.94c-0.91,2.01-2.11,4.01-2.12,6.31
		c-0.89,18.27-1.86,36.53-2.59,54.8101c-0.21,1.35,0.19,3.1-1,4.12c-6.78,6.97-16.32,11.4399-26.15,11.0699
		c-11.61-0.46-22.46-5.97-31.27-13.27c4.62-8.73,9.48-17.33,14.22-25.9999c1.65-3.16,3.83-6.15,4.52-9.72
		c2.37-10.49,4.82-20.97,7.23-31.44c1.24-4.72-0.01-9.66,0.84-14.39c2.25-4.56,5.07-9.11,5.32-14.33
		c0.91-16.69,2.89-33.55,0.25-50.18c-0.71-5.69-4.26-10.53-4.85-16.23c-1.64-12.82-0.94-25.8-0.27-38.66
		c1.27-18.17,3.01-36.4,6.97-54.21c1.2-6.84,5.78-12.29,8.24-18.64c5.35-12.7599,9.87-26.2,10.52-40.1299
		c0.55-6.66-2.93-12.71-3.08-19.3c-1.47-20.79-0.06-41.66,1.11-62.43c0.52-7.04,0.79-14.11,1.69-21.1
		c5.32-24.84,10.79-49.65,16.16-74.47c2.5-12.88,6.38-25.52,7.41-38.64c2.08-18.37,4.06-36.74,6.14-55.11
		c0.71-5-0.29-10.02-0.59-15.02c-2.44-30.02-5.07-60.04-6.96-90.11c6.14-0.13,12.75-0.84,17.75-4.76
		c-5.77,1.3-11.95,2.41-17.66,0.21c-12.51-11.14-18.29-28.01-19.15-44.42c-3.84,0.32-7.15,2.46-10.54,4.09
		c-2.92,1.12-3.61,4.45-5.13,6.85c-8.61,15.7-17.32,31.48-28.34,45.65c-5.64,7.74-10.87,15.83-14.98,24.5
		c-2.15-3.21-3.91-6.64-5.96-9.9c0.48,6.97,0.51,13.97,0.76,20.96c0.56,6.41-3.08,12.05-5.52,17.71
		c-14.75,29.64-32.57,57.62-49.7,85.91c10.48,9.36,20.96,18.74,31.3,28.28c-1.03,6.57-1.71,13.2-2.73,19.78
		c-3.58,3.28-8.76,4.34-12.41,7.52c-0.44,5.72,0.01,11.9-2.99,17.06c-1.62,2.96-4.99,4.57-8.3,4.46
		c-11.29,0.07-22.57-0.06-33.85,0.06c-4.59-7.81-8.78-15.84-13.28-23.7c-0.89-1.77-2.44-3.63-1.61-5.72
		c4.24-15.73,8.89-31.36,12.95-47.14c0.81-2.7,1.05-5.52,1.41-8.3c3.69-29.46,7.17-58.94,10.16-88.47
		c2.37-23.99,12.75-46.99,28.64-65.07c2.35-2.66,5.24-4.94,6.77-8.22c7.61-14.63,15.27-29.28,21.36-44.63
		c6.73-14.54,10.97-30.49,10.31-46.6c2.74-9.6,7.54-18.65,13.36-26.74c7.91-10.9,19.58-19.28,32.89-22
		c8.93-1.87,18.28-1.63,27.15,0.44c3.44,0.95,6.83-0.65,10.1-1.56c17.34-5.84,34.03-13.41,50.82-20.66
		c2.31,5.55,4.04,11.33,6.55,16.79c0.11-9.62,0.73-19.36,0.16-28.9c-9.63-8.45-14.81-20.6-18.51-32.59
		c-1.42-4.37-2.33-8.89-2.46-13.49c-4.62-4.07-8.99-9.62-8.5-16.14c0.28-4.91,3.74-8.7,7.06-11.97c-1.36-11.31-3.36-22.68-2.37-34.1
		c0.56-5.08,1.8-10.61,5.83-14.12C222.27,24.51,231.53,20.9,240.66,17.78z"/>
</g>
</svg>
